<?xml version="1.0" encoding="utf-8"?>
<!-- Generator: Adobe Illustrator 26.0.1, SVG Export Plug-In . SVG Version: 6.00 Build 0)  -->
<svg version="1.1" id="Layer_1" xmlns="http://www.w3.org/2000/svg" xmlns:xlink="http://www.w3.org/1999/xlink" x="0px" y="0px"
	 viewBox="0 0 3441.5 2362.7" style="enable-background:new 0 0 3441.5 2362.7;" xml:space="preserve">
<style type="text/css">
	.st0{fill:#F2E900;}
	.st1{fill:#FF2423;}
</style>
<g>
	<path class="st0" d="M669.3,1999.6c-0.2,12.6-0.3,26.2-0.7,39.7c-0.4,13.5-1.9,27-4.7,40.2c-1.5,7.3-3.9,14.3-7.5,20.8
		c-4.7,8.3-9.4,16.8-14.6,24.8c-23.8,36.2-50.4,70.1-80,101.7c-7.8,8.3-16.1,16-24.4,23.7c-11.3,10.7-24.7,17.7-39.5,22.2
		c-14.6,4.4-29.5,7.7-44.5,10.5c-18.5,3.4-37.1,5.6-55.8,7.2c-19.6,1.7-39.2,2-58.8,0.6c-6.1-0.4-12.1-1.6-18-3
		c-6.5-1.5-12.3-4.6-16.8-9.6c-3.9-4.1-7.9-8.2-11.2-12.8c-6-8.5-12-17.2-17.2-26.2c-21.5-37.1-38.3-76.3-50.3-117.5
		c-3.4-11.7-6.2-23.6-7.6-35.8c-0.9-7.9-1.1-15.6-0.6-23.5c1.7-27,4.7-53.9,8.7-80.6c3.6-24.1,6.9-48.3,10.5-72.5
		c6.4-42.8,8.6-85.9,7-129.2c-0.7-18.7-0.8-37.5-1.4-56.3c-0.4-11.5,1.1-22.6,4.4-33.6c4.2-14.2,8.5-28.4,12.8-42.6
		c4.2-13.8,8-27.6,10.4-41.8c1.6-9.6,1.8-19.1,0.5-28.7c-2.1-14.7-5-29.2-8.3-43.7c-10.6-46.3-23.5-92-36.5-137.7
		c-2.9-10.1-6.1-20-8.7-30.1c-4.1-15.6-9.5-30.8-15.5-45.8c-4.3-10.9-8.3-22-12.2-33.1c-4.3-12.4-7-25.2-7.9-38.3
		c-0.8-11.4,0.3-22.6,3.4-33.7c4.9-17.4,14.7-31.4,29.2-42.2c8.8-6.6,18.5-11.5,28.6-15.6c14.6-5.9,29.8-9.6,45.3-12.7
		c14.1-2.8,28.3-5.1,42.4-7.8c5.1-1,10.3-2,15.3-3.5c40.5-12.1,81-24.1,121.4-36.5c31.7-9.7,63.3-19.4,94.4-30.9
		c6.1-2.3,12.5-3.9,17.8-7.9c1-0.7,1-1.5,0.1-1.9c-2.3-1.1-4.7-2.3-7.1-3.2c-11-4.2-22-8.2-33-12.5c-15.5-6-30.4-13.2-44.6-21.7
		c-15-9-28.9-19.5-41.2-32c-8.6-8.8-15.9-18.5-22.4-28.9c-7.8-12.5-11.8-26.1-12.9-40.7c-1.6-21.4-0.7-42.7,1.8-64
		c5.3-43.9,15.8-86.6,29.6-128.4c6.7-20.3,14.7-40.1,23.8-59.4c11.9-25.1,27.7-47.3,47.3-67c17.2-17.4,35.6-33.4,55-48.4
		c56.8-43.9,117.8-80.9,182.8-111.4c27.7-13,56.4-23.2,85.8-31.4c52.9-14.7,106.2-28,159.7-39.9c22.1-4.9,44.2-9.8,66.6-13.8
		c10.7-1.9,21.4-4.4,32.3-4.9c7.1-0.3,12.5-3.3,17-8.4c4.3-4.9,8.9-9.6,12.9-14.8c12.4-16.3,24.8-32.6,36.7-49.3
		c18.7-26.3,36.9-53,55.6-79.2c12.1-17,24.7-33.8,37.4-50.5c6.9-9,14.3-17.6,21.9-26c4.9-5.5,10.4-10.5,15.8-15.6
		c11.9-11.2,26.4-14.6,42.3-13.4c13.1,1,25.8,4,38.3,8c12.9,4.2,25.4,9.2,37.7,14.9c32.5,15.1,63.3,33.2,92.7,53.7
		c16.3,11.4,29.9,25.3,41.2,41.6c16.5,23.8,29.3,49.4,37.2,77.4c3.2,11.4,4.9,23,6,34.7c0.2,2.6,0.3,5.2,0.1,7.8
		c-1.4,20.1-4.1,39.9-10.4,59.1c-1.2,3.7-2.8,7.3-4.2,11c-1.4,3.8-0.5,5.7,3.4,6.7c23.2,6.1,46.4,12.1,69.5,18.2
		c1.3,0.3,2.6,0.7,3.9,0.7c1.7-0.1,3.6-0.2,5-1c3-1.7,5.8-3.8,8.8-5.7c19.3-12.2,40-21.3,62.5-25.9c15.4-3.2,30.9-4.2,46.8-2.7
		c38.8,3.7,76.5,12.5,113.9,23c14,3.9,11.6,5.8,18.3-7.9c25.5-51.6,52.9-102.2,83.5-151c15.8-25.1,32.4-49.7,50.7-73.1
		c11-14.1,22.7-27.6,35.5-40.2c14.4-14.2,30.4-26,48.7-34.9c33.1-16.1,67.5-28.1,103.2-36.8c25-6.1,50.4-10.2,76.1-12.2
		c24-1.9,48-1.7,71.8,2.2c20.9,3.4,40.5,10.2,58.3,22c12.4,8.2,24.3,17,35.7,26.5c27.4,23.2,52,49.1,75.1,76.5
		c3.1,3.7,6.1,7.4,9.1,11.1c2.1,2.6,4.7,3.8,7.9,4c0.9,0,1.7,0.2,2.6,0.2c18.7,1.1,37.5,2.1,56.2,3.4c23.9,1.6,47.9,2.7,71.9,3.4
		c8.7,0.3,17.4,0.7,26.2,0.7c26.2,0.2,52.3,2.6,78.1,6.7c34,5.5,67.4,13.8,100,25.4c33.8,12,66,27.3,96.4,46.4
		c17.4,10.9,34.5,22.2,51,34.3c21.2,15.4,41.2,32.3,60,50.6c5.9,5.8,11.9,11.5,17.9,17.3c13.6,13.2,29,23.8,46.2,31.6
		c12.7,5.8,25.6,11,38.5,16.4c12.1,5,24.2,9.8,36.3,14.8c16.2,6.7,31.3,15.2,45.7,25.3c12.9,9,25.5,18.3,37.4,28.5
		c9.6,8.3,18.8,17,26.5,27.1c4,5.2,7.6,10.6,10.9,16.2c3.1,5.3,5.2,11,6.7,17c2.1,8.2,2.5,16.4-0.2,24.5
		c-3.5,10.8-6.9,21.6-10.7,32.2c-6.5,18.1-14.6,35.5-24,52.2c-7.1,12.5-15.2,24.4-24.4,35.6c-15.1,18.1-33.3,31.8-55.2,40.7
		c-15.8,6.4-32,11.5-48.5,15.6c-26.7,6.5-53.7,11-81.1,13.9c-29.2,3-58.3,3.4-87.6,1.9c-14.8-0.7-29.6-2.8-44-6
		c-31.1-6.9-62.3-13.1-93.7-18.1c-31-4.9-62-9.8-93-14.6c-1.7-0.3-3.5-0.1-5.2,0c-0.3,0-0.7,0.4-0.8,0.6c-0.1,0.4-0.2,1,0.1,1.3
		c1.8,1.8,3.6,3.7,5.6,5.4c17.5,14.5,34.6,29.4,50.5,45.6c9.8,10,19.3,20.2,27.5,31.5c3.8,5.3,7.4,10.8,10.8,16.4
		c9.2,15.2,11.6,31.7,9.1,49.1c-2.4,16.5-7.2,32.3-13.5,47.7c-5.3,12.9-11.4,25.5-18.1,37.7c-1,1.9-1.8,4-2.5,6
		c-0.1,0.2,1.1,1.2,1.6,1.2c1.7-0.1,3.4-0.4,5.1-0.9c38.7-10.4,77.6-20.3,116.7-28.8c24.7-5.4,49.5-10.2,74.6-13.8
		c25.5-3.7,51.3-4.3,77-3.9c22.3,0.3,44.4,2.2,66.4,6c13.8,2.4,27.4,5.4,40.5,10.3c5.7,2.1,11.2,4.7,16.7,7.4
		c7.6,3.8,13.6,9.5,17.9,16.7c2.5,4.1,4.9,8.3,6.9,12.6c13.7,29.6,21.8,60.6,23.3,93.3c0.3,6.5-0.1,13.1-0.5,19.6
		c-0.7,9.9-4.1,18.7-11,26c-4.8,5.1-9.6,10.2-14.7,14.9c-7,6.5-14.5,12.6-21.6,19c-9.7,8.7-19.5,17.5-29,26.4
		c-7.9,7.5-15,15.8-21.1,24.9c-4.7,6.9-10.2,13-16.1,18.9c-10.5,10.5-21.7,20.2-33.2,29.6c-37.4,30.2-76.7,57.6-117.6,82.8
		c-15.2,9.4-31.2,17.3-47.6,24.5c-39.9,17.5-80.4,33.6-120.9,49.6c-3.2,1.3-6.3,2.8-9.4,4.4c-0.4,0.2-0.6,1.9-0.3,2.2
		c2.5,2.4,5.1,4.7,7.8,6.8c20.6,16.1,41.5,32,61.8,48.4c15.6,12.6,30.7,25.8,45.7,39.1c10.5,9.2,20,19.4,28.8,30.3
		c7.4,9.1,15.7,17.6,23.5,26.4c7.2,8.2,14.5,16.3,21.5,24.6c5.6,6.7,10.3,14.1,14.3,21.8c9.4,18.2,11.4,37.3,6.9,57.2
		c-2,9-4.8,17.6-8.4,26.1c-10.9,26.1-26.2,49.2-46.4,69c-8.1,8-17,15-26.9,20.7c-10.3,5.9-21.2,10-33.2,11.3
		c-10,1-19.9,2.4-29.8,3.8c-17.7,2.4-35.1,6.4-52.7,9.8c-19.7,3.8-39.4,7.7-59.1,11c-17.2,2.9-34.6,4.1-52.1,5
		c-16.7,0.8-33-1.3-49.1-6.2c-18.4-5.5-36.2-12.6-53.7-20.3c-35.1-15.5-69.1-33.3-102.5-52.2c-25.4-14.4-50.4-29.5-75.6-44.3
		c-2.6-1.5-5.3-3-7.9-4.5c-1-0.6-2.8,0.1-3.3,1.2c-1.6,3.6-3.3,7.1-4.8,10.7c-18.4,42.8-36.5,85.8-55.2,128.5
		c-17.1,39.1-36.2,77.4-55.4,115.5c-8.6,17.1-18.1,33.8-28.3,50.1c-12.1,19.3-25.9,37.1-41.9,53.4c-22,22.4-43.2,45.6-65,68.2
		c-15.7,16.3-31.6,32.5-47.8,48.4c-9,8.9-18.7,17.1-28.3,25.3c-6.3,5.4-13.4,9.6-21,13.1c-7.9,3.7-15.4,8.1-23.1,12.3
		c-4.2,2.3-8.2,5-12.6,7c-8.9,4.1-18.1,6.1-27.9,3.4c-8.4-2.3-16.9-4.1-25.3-6.7c-37.5-11.6-74.3-25-110.3-40.8
		c-27.9-12.2-27.9-13-48.3-30.6c-16.2-13.9-31.7-28.7-46.1-44.6c-7.9-8.7-15.5-17.8-22-27.6c-3.8-5.8-7.3-11.8-9.7-18.5
		c-2.2-6.4-2.7-12.6-0.9-19.2c2.2-8,4.8-15.9,8-23.5c9.3-22.1,18.7-44.1,28.2-66.1c7.9-18.4,16.2-36.7,24.1-55.1
		c3.1-7.2,5.6-14.6,8.3-22c1-2.7-0.6-5.2-3.5-5.9c-5.1-1.2-10.2-2.2-15.3-3.2c-2.1-0.4-4.3-0.6-6.4-1.1c-8.4-1.9-15.4-5.9-20.7-12.7
		c-2.7-3.4-5.4-6.9-8.1-10.3c-2.2-2.7-4.5-5.3-7.6-7.1c-3.1-1.8-6.4-2.8-9.9-0.7c-4.1,2.4-8.4,4.6-12.4,7.1
		c-9.5,6.1-18.9,12.5-28.4,18.7c-15.7,10.3-31.3,20.6-47.1,30.7c-12.1,7.7-24.7,14.8-37.7,20.9c-7.9,3.7-15.9,7-24,10.2
		c-15.6,6.2-31.9,8.3-48.7,7.5c-15.8-0.7-31.1-3.6-46.4-7.3c-25-6.1-49.3-14.5-73.4-23.5c-15.9-5.9-31.8-12-47.8-17.8
		c-5.7-2.1-11.6-3.7-17.4-5.7c-3.5-1.2-6.9-0.8-10.1,0.8c-4.7,2.3-9.4,4.6-13.9,7.2c-8.7,5.1-17.1,10.5-25.8,15.5
		c-10.6,6.1-21.2,12.1-31.9,17.9c-8.4,4.6-17.4,8.1-26.5,11.1c-17,5.6-34.1,6.1-51.6,2.3c-15.4-3.4-30.1-8.8-44.5-15.1
		c-7.6-3.3-15-7-22.5-10.5c-6.3-2.9-12.6-5.9-19-8.7c-3.2-1.4-6.5-2.5-9.9-3.4c-5.7-1.6-11.2-1.2-16.4,1.8
		c-4.5,2.6-9.1,5.1-13.6,7.8c-8.2,5-16.2,10.2-24.4,15.2c-10.8,6.6-21.8,12.7-33.3,18.1c-15.1,7-30.6,12.7-47,15.7
		c-13.8,2.5-27.6,3.7-41.6,2.4c-22.3-2.1-43.7-8-64.6-15.7c-24.6-9.1-48-20.6-70.9-33.4c-16.7-9.4-33.2-19.3-49.7-28.9
		c-4.5-2.6-9.1-5.1-13.7-7.7c-2.8-1.6-5.8-2-8.9-1.3c-4.2,1-8.5,2.1-12.6,3.5c-6.2,2.1-12.3,4.4-18.3,7
		c-27.3,11.6-53.8,24.7-79.7,39.3c-9.6,5.4-10.4,5-10.6,17.4C669.1,1966.4,669.3,1982.6,669.3,1999.6z M653.8,2000.2
		c0,0-0.1,0-0.1,0c0-14-0.2-27.9,0.1-41.9c0.1-7.4,1.1-14.8,1.8-22.2c0.5-4.6,2.9-8.2,6.9-10.6c4.1-2.5,8.2-5,12.4-7.3
		c21.7-12.2,43.8-23.4,66.5-33.5c10.8-4.8,21.5-9.5,32.8-13c4.2-1.3,8.3-2.6,12.5-3.7c6.6-1.7,13-1.2,19,2.2c5.3,3,10.7,5.9,16,9
		c16.2,9.4,32.3,19,48.6,28.2c17.5,9.9,35.4,18.7,53.9,26.6c18.5,7.8,37.4,14.4,57.2,18.3c12.4,2.4,25,4.2,37.7,3
		c16.6-1.5,32.7-5.1,48.2-11.3c12.6-5,24.7-11,36.3-17.9c10.1-6,20-12.4,30.1-18.5c6-3.6,12-7.1,18.1-10.5
		c9.3-5.2,19.2-5.6,29.1-2.1c6.6,2.3,13,4.9,19.4,7.7c11.1,5,22.1,10.3,33.2,15.4c11.9,5.4,24.2,9.7,36.9,13
		c17.5,4.6,34.4,3.7,51.3-2.7c10.2-3.9,20.2-8.3,29.6-13.7c11.4-6.5,22.5-13.3,33.8-19.9c7.1-4.2,14.2-8.5,21.5-12.5
		c3.8-2.1,7.9-3.5,12-5.1c4.2-1.6,8.4-1.5,12.9-0.6c8.1,1.7,15.9,4.5,23.7,7.3c16.8,6.2,33.4,12.7,50.2,18.9
		c24.6,9,49.3,17.4,74.9,23.2c12.4,2.8,24.9,4.6,37.5,5.3c10.1,0.5,20-0.6,29.8-3.2c11.4-3.1,22.3-7.6,32.9-12.7
		c16.1-7.7,31.6-16.7,46.6-26.4c15.7-10.2,31.3-20.7,46.9-31c7.6-5,15.3-10.1,23.1-14.8c4.1-2.5,8.3-4.8,12.7-6.7
		c6.8-2.9,13.6-2.3,20.1,1.2c4.3,2.3,8,5.4,11.1,9c2.9,3.3,5.6,6.7,8.2,10.2c4.3,5.9,9.7,9.8,17.2,10.7c4.3,0.5,8.6,1.5,12.8,2.4
		c5.1,1.1,10.2,2.5,14.6,5.4c7.2,4.8,9.1,11,7.5,18c-0.9,3.8-2.1,7.6-3.5,11.2c-2.5,6.5-5,13-7.7,19.4c-8.7,20-17.6,39.9-26.2,59.9
		c-8.6,20-17.1,40.1-25.4,60.2c-2.5,6-4.4,12.3-6.4,18.5c-1.3,4.3-1.2,8.6,1,12.7c2,3.9,3.8,7.9,6.2,11.4
		c4.5,6.4,9.2,12.7,14.2,18.7c14.9,17.7,31.5,33.8,48.8,49.2c21,18.6,24.7,20.9,50.4,32c33.6,14.5,68,27,102.9,38.2
		c9.1,2.9,18.5,5,27.8,7.5c3.5,0.9,6.9,0.5,10.3-0.3c5.6-1.4,10.5-4.2,15.4-6.9c8.4-4.7,16.6-9.7,25.2-13.8
		c8.8-4.1,16.9-9.1,24.1-15.5c9.4-8.4,18.9-16.8,27.9-25.7c17.6-17.6,34.9-35.4,52.1-53.4c19-19.8,37.7-40,56.9-59.7
		c12.3-12.5,23.2-26,32.9-40.6c10.6-16,20.2-32.6,29-49.7c19.3-37.1,37.5-74.8,54.8-112.9c14.5-32.2,28.2-64.7,42.2-97.1
		c7.9-18.4,15.6-36.9,23.4-55.4c1.4-3.2,2.9-6.3,4.6-9.4c1.3-2.4,5.8-3.7,8.2-2.5c3.5,1.8,6.9,3.8,10.2,5.8
		c29.3,18.1,59,35.6,89.1,52.3c30.1,16.7,60.5,32.8,91.9,47c17.1,7.7,34.4,14.8,52.3,20.5c16.4,5.2,33.1,7.7,50.3,6.7
		c17.9-1,35.7-2.5,53.3-5.6c23.6-4.2,47.1-9,70.6-13.5c20.5-3.9,41-8.3,62-9.7c14.3-1,27.1-6,38.8-14.2c9.7-6.8,18.3-14.8,26-23.8
		c14-16.3,25.1-34.5,33.6-54.3c3.1-7.2,5.7-14.6,7.5-22.3c4-16.7,2.7-32.9-5.5-48.2c-4.1-7.7-8.9-15-14.6-21.6
		c-7.1-8.3-14.5-16.3-21.7-24.5c-8.4-9.5-16.7-19-25-28.5c-3.8-4.2-7.5-8.5-11.4-12.6c-11.6-11.9-24.2-22.7-36.9-33.4
		c-31-26.1-63.2-50.9-95.7-75.2c-2.8-2.1-5.6-4.2-8.2-6.4c-3.9-3.4-3.2-10,1.3-12.2c3.5-1.7,7.2-3.1,10.8-4.6
		c45-17.8,89.9-35.6,134.3-54.8c20.5-8.8,40.1-19.2,58.9-31.1c31.7-20.1,62.5-41.5,91.9-64.8c11.6-9.2,22.9-18.8,34.1-28.5
		c10.2-8.9,19.5-18.7,27.1-30c5.4-8,11.9-15,18.6-21.9c10.7-10.9,22.3-20.9,33.8-30.9c6.9-6,13.9-11.9,20.6-18.2
		c4.8-4.4,9.2-9.3,13.6-14.1c3.3-3.6,5.1-8,5.8-12.9c0.9-6.5,1.5-13,1.1-19.6c-1.8-26.3-7.7-51.7-17-76.3
		c-2.6-6.9-5.8-13.6-9.5-20.1c-4.1-7.1-9.7-12.3-17.1-15.7c-5.1-2.3-10.5-4.3-15.8-6.2c-14.5-5-29.5-7.7-44.6-9.9
		c-20.7-3.1-41.7-4.2-62.6-4.1c-16.1,0.1-32.3,0.6-48.4,2c-22.2,1.9-44.1,5.9-65.9,10.3c-38.4,7.8-76.6,16.8-114.5,27
		c-16,4.3-31.9,8.7-47.9,12.9c-2.9,0.8-6,1.3-9,1.4c-2.3,0.1-4.1-1.2-5.3-3.2c-1.2-2-1.9-4.1-0.9-6.2c1.5-3.1,3.3-6.1,5.1-9.1
		c10-16.4,19.1-33.3,26.6-51c5.6-13.3,10-26.9,12.9-41.1c3.8-19,0.9-36.3-10.4-52.3c-6.1-8.6-12.5-16.8-19.5-24.6
		c-12.9-14.2-26.8-27.5-41.2-40.2c-15.4-13.5-31.3-26.5-47.7-38.8c-2.4-1.8-5-3.6-7.1-5.7c-1.9-1.9-2.6-4.5-1.7-7.3
		c0.9-2.8,4.1-5.4,6.7-5.5c0.9,0,1.8,0,2.6,0.1c19,2.6,38,5,57,7.8c25,3.8,49.9,7.9,74.9,11.9c29.3,4.7,58.4,10,87.3,16.7
		c29.6,6.8,59.5,8.9,89.6,8.3c16.6-0.4,33.1-1.3,49.6-3.2c26.5-3,52.6-7.6,78.4-14.2c15.2-3.9,30.1-8.7,44.6-14.8
		c16.4-6.9,30.4-17,42.2-30.1c6.4-7.1,12.3-14.7,17.6-22.7c8-12,14.8-24.6,20.9-37.7c8.7-18.6,15.9-37.7,21.8-57.4
		c1.9-6.5,1.8-12.8-0.1-19.3c-2.4-8.6-6.9-16-12.1-23c-6.6-8.8-14.2-16.5-22.3-23.9c-12.3-11.2-25.6-21-39.1-30.7
		c-14.3-10.2-29.4-18.7-45.6-25.4c-12.5-5.1-25-10.2-37.5-15.3c-13.7-5.5-27.4-11.2-40.7-17.7c-16.2-8-30.8-18.1-43.9-30.4
		c-6.7-6.3-13.2-12.7-19.8-19.1c-19.4-18.9-40.1-36.3-62.2-52c-24.5-17.5-49.5-34.2-76.2-48.2c-66.3-34.7-137.1-53.1-211.5-58
		c-12.2-0.8-24.4-1-36.6-1.4c-24-0.8-48-1.1-71.9-3c-21.3-1.6-42.7-2.5-64-3.7c-3.5-0.2-7-0.5-10.4-0.9
		c-13.9-1.6-10.8,0.6-20.4-11.3c-0.3-0.3-0.5-0.7-0.8-1c-22.5-27.4-46.4-53.3-73-76.7c-13.4-11.9-27.6-22.8-42.7-32.4
		c-14.9-9.6-31.3-15.2-48.6-18.3c-24.7-4.3-49.6-4.1-74.4-2.1c-24.8,2-49.3,6.3-73.4,12.4c-33.5,8.4-65.8,19.9-96.9,35.2
		c-16.2,8-30.5,18.5-43.4,31.1c-11.5,11.3-22.1,23.5-32.1,36.2c-21.7,27.4-40.9,56.5-59.1,86.3c-28.9,47.3-55.1,96-79.4,145.8
		c-1.5,3.1-3,6.3-4.7,9.4c-2.1,3.9-5.4,5.4-9.9,4.3c-2.5-0.6-5-1.5-7.5-2.2c-38.9-11.5-78.2-21.2-118.7-25.5
		c-16.3-1.7-32.2-0.8-48,2.9c-21.5,5-41.1,14.1-59.4,26.4c-2.5,1.7-4.9,3.6-7.5,5.3c-2.2,1.5-4.8,2.2-7.5,1.6c-3-0.6-6-1.3-8.9-2.1
		c-8.4-2.2-16.9-4.4-25.3-6.6c-17.7-4.6-35.4-9.2-53.1-13.8c-3-0.8-5.9-1.6-8.8-2.6c-3.6-1.3-5.7-6.3-4.2-9.8
		c0.5-1.2,1.1-2.3,1.8-3.5c5.3-9.1,8.9-18.9,11.6-29c2.7-10.1,4.1-20.5,5.7-30.8c2.4-15.4,1-30.4-2.5-45.4
		c-6.3-27.1-18.2-51.7-33.3-74.9c-11.6-17.7-25.9-32.7-43.6-44.6c-26-17.6-52.9-33.8-81.2-47.4c-12.6-6.1-25.4-11.5-38.6-16.1
		c-11.6-4-23.4-6.8-35.6-8.3c-13.8-1.7-26,1.4-36,11.4c-1.5,1.5-3.2,2.9-4.7,4.5c-4.8,5.1-9.7,10-14.1,15.4
		c-9.9,12.2-19.9,24.3-29.1,37c-19.2,26.5-37.9,53.3-56.9,80c-15.4,21.7-30.8,43.4-46.5,64.8c-6.2,8.4-12.9,16.5-19.8,24.4
		c-4.3,4.9-9.2,9.2-14.2,13.5c-3.7,3.2-8.1,4.8-13.1,5.3c-13,1.3-25.9,3.3-38.7,6c-22.2,4.7-44.4,9.1-66.5,14
		c-50.2,11-100.1,23.4-149.6,37.2c-24.4,6.8-48.5,14.3-71.7,24.4c-69.5,30.2-134.1,68.8-194.4,114.7c-19.8,15.1-38.6,31.3-56.1,49
		c-18.6,18.8-33.9,39.8-45,63.8c-3.1,6.7-6.3,13.4-9,20.3c-23.7,58.5-39.8,118.9-45.3,182c-1.4,15.7-1.4,31.4,0.9,47
		c1.2,8.3,3.6,16.1,7.6,23.5c5.9,10.8,13,20.6,21.4,29.6c9.3,9.9,19.8,18.4,31.1,25.9c12.8,8.4,26.2,15.6,40.4,21.4
		c13.3,5.4,26.8,10.4,40.2,15.6c5.3,2,10.6,3.9,15.8,6.3c3.1,1.5,6.1,3.5,8.7,5.7c4.4,3.6,4.1,11.3-0.1,15.2c-3.2,3-7,5.3-11,7
		c-8.4,3.6-16.8,7.3-25.3,10.5c-28.6,10.6-57.8,19.5-86.9,28.4c-42.1,12.8-84.3,25.4-126.4,38c-5.8,1.7-11.8,3.1-17.8,4.2
		c-14.6,2.8-29.2,5.2-43.7,8c-12.8,2.5-25.5,5.7-37.8,10.4c-9.8,3.8-19.1,8.4-27.5,14.9c-8.8,6.8-15.6,15.1-19.9,25.5
		c-5.1,12.3-7.2,25.1-5.8,38.4c1.1,10,3.1,19.8,6.1,29.4c3.6,11.7,8,23,12.5,34.4c5.1,13,10.1,26,13.9,39.4
		c4.1,14.2,8.2,28.5,12.2,42.7c13.1,46.1,26.1,92.2,36.6,139c3.3,14.9,6.1,29.9,8.1,45c1,7.8,0.9,15.6-0.2,23.5
		c-1.8,12.5-4.5,24.9-8.1,37c-5,16.7-9.9,33.4-15.1,50.1c-3.8,12.2-5.3,24.6-4.9,37.4c0.7,23.5,1,47.1,1.4,70.7
		c0.7,36.7-1.4,73.2-6.8,109.6c-3.6,24.1-6.9,48.3-10.5,72.5c-3.8,25.5-6.7,51-8.8,76.7c-0.7,8.7-1.3,17.4-0.1,26.1
		c1.3,9.5,3,18.9,5.6,28.2c12.9,45.5,31.7,88.6,56,129.2c3.6,6,7.6,11.7,11.7,17.3c2.3,3.2,5,6.1,7.7,8.9c3.1,3.2,6.7,5.5,11.2,6.3
		c4.7,0.9,9.4,2.1,14.1,2.4c10,0.6,20.1,0.9,30.1,0.8c33.2-0.4,66.1-4.8,98.6-11.6c11.5-2.4,22.9-5.4,33.9-9.6
		c7-2.7,13.6-6,19.3-10.9c6.3-5.4,12.7-10.7,18.5-16.6c36.2-36.8,68-77.2,95.6-120.9c2.6-4,4.9-8.3,7.2-12.4
		c4.3-7.7,6.8-16.1,8-24.8c1.6-11.2,3-22.5,3-33.9C653.3,2023.8,653.6,2012,653.8,2000.2z"/>
</g>
<g>
	<path class="st1" d="M1888.9,1679.8c-2.9-20.9,0.7-40.8,2.4-60.8c0.1-0.9,0.2-1.7,0.3-2.6c0.7-4.4,2.4-8.4,5.3-11.8
		c3.1-3.6,6.5-7.1,9.7-10.6c3.5-3.9,7-7.8,10.4-11.8c2.3-2.8,3.4-6,3.1-9.7c-0.2-2.2-0.4-4.3-0.4-6.5c0-2.2,0.5-4.5,2.4-5.8
		c4.6-3.2,5.1-7.9,4.8-12.8c-0.3-4.8-0.9-9.6-1.6-14.3c-0.8-5.1-0.1-9.3,4.5-12.6c1.8-1.3,1.2-3.6-1.4-5.1c-1.8-1-2.5-2.2-2-4.1
		c0.5-2,2-4,0.7-6.2c-0.3-0.6-1.5-1.1-2.2-1c-0.7,0-1.6,0.6-2,1.3c-3.8,5.8-9.4,8.9-15.6,11.3c-2.4,1-4.9,1.9-7.3,2.8
		c-3.7,1.4-7.1,3.3-9.1,7c-1.3,2.4-3.5,3.8-5.8,5.1c-6,3.5-12.1,6.9-18,10.6c-7.4,4.6-14.7,9.4-21.9,14.3
		c-5.4,3.7-10.3,8.1-14.2,13.4c-2.7,3.6-5.9,6.3-9.5,8.9c-14.3,10.2-26.6,22.5-38.2,35.6c-3.2,3.6-5.9,7.3-7.2,12.2
		c-1.9,7.4-6.8,13.1-13.1,17.4c-3.2,2.2-6.5,4.4-9.9,6.4c-6.4,3.9-11.9,8.7-16.6,14.6c-4.8,6.2-10.2,12-15.2,18
		c-3.7,4.3-7.3,8.7-10.8,13.1c-7.6,9.6-14.2,19.9-17.6,31.9c-0.6,2.3-2.2,3.6-4.5,4.2c-6.3,1.6-12.7,3.2-18.9,5.1
		c-5.4,1.6-10.8,3.5-16.1,5.5c-7,2.7-13.1,6.6-18.6,11.8c-5,4.8-10.5,9.3-16.1,13.4c-13.8,10.1-29.4,15.1-46.6,14.3
		c-3.9-0.2-7.9-0.2-11.7-0.7c-8.9-1.2-17.4,0.1-25.6,3.5c-3.2,1.3-6.5,2.5-9.9,3.5c-7.8,2.3-14.7,0.6-20.6-4.8
		c-2.8-2.7-5.5-5.6-7.7-8.8c-2.4-3.4-2.8-7.3-0.7-11.2c1.4-2.7,3-5.3,4.4-8c1.9-3.9,3.9-7.8,5.6-11.8c1.3-3.1,0.1-5.3-2.9-5.6
		c-2.6-0.3-5.2-0.4-7.8-0.8c-9.8-1.2-20.3-8.7-20-23.5c0.1-3.9,0.2-7.9,1.7-11.6c1.3-3.4,1.6-6.7,1.1-10.2
		c-0.9-5.8,0.7-11.3,3.8-16.2c3-4.8,6.2-9.5,9.7-13.9c5-6.1,10.3-11.8,15.6-17.7c2.6-2.9,5-5.9,6.1-9.9c1.9-6.8,5.5-12.8,9.5-18.6
		c6.7-9.7,13.4-19.4,20.6-28.7c12.5-16.3,25.4-32.2,38-48.4c6.2-7.9,12.3-15.8,18.1-24c3.5-5,6.7-10.2,9.4-15.7c1.5-3,3.3-4.7,6.3-6
		c3.7-1.6,6-4.9,7.6-8.6c2.5-5.6,3.7-11.6,4.8-17.6c1-5.1,1.7-10.3,2.9-15.4c1.3-6,3.3-11.7,8-16.1c1.8-1.7,3-4.3,4.3-6.5
		c3.5-6,7.1-12,10.5-18.1c2.4-4.2,5-8.1,8.6-11.5c3.5-3.3,5.9-7.5,8.4-11.6c1.6-2.6,3.2-5.3,5.3-7.4c2.5-2.3,6.2-3.5,8.2-6.1
		c2.1-2.6,2.7-6.4,5.3-8.9c3.1-3.1,6.2-6.1,9.4-9.1c3.2-3,6.6-5.7,9.8-8.7c2.8-2.7,5.5-5.6,8-8.6c2.9-3.5,4.2-7.6,3.8-12.2
		c-0.2-2.2-0.5-4.3-0.5-6.5c0-1.8,0.6-3.4,2.5-4.1c0.8-0.3,1.6-0.7,2.4-1.1c2.4-1.3,4-3.3,4.7-6c2-7.6,3.9-15.2,6.1-22.7
		c1.1-3.8,2.5-7.4,4.2-11c3-6.4,8.2-10.3,15.1-11.3c5.2-0.8,10.2-2,15.3-3.2c6.7-1.5,13-0.2,18.4,4.4c2,1.7,3.9,3.5,5.8,5.3
		c2.3,2,4.4,4.2,6.8,6.1c3.8,3.1,8.1,5.1,13.1,5.2c5.3,0.1,10.4,1,15.4,2.7c10.3,3.4,13.2,10,9.7,20.5c-1.1,3.3-2.9,6.4-4.7,9.3
		c-2.1,3.5-3,7.3-2.8,11.3c0.3,5.6,0.3,11.4,1.6,16.9c3.9,16.7,0.3,32-7.6,46.7c-3.7,7-8.1,13.5-14.9,17.9
		c-5.3,3.4-7.2,8.5-7.5,14.5c-0.1,3-0.4,6.1-0.1,9.1c0.7,7.8-1.2,14.6-6.1,20.7c-3,3.7-5.3,8-7.7,12.1c-1.9,3.4-3.6,7-5.2,10.6
		c-0.7,1.6-1.3,3.3-1.6,5c-1.8,8.8,1.4,12.2,9.5,13.8c1.6,0.3,3.5-0.1,5.1-0.6c1.6-0.5,3.2-1.4,4.6-2.3
		c11.1-7.7,22.2-15.4,33.1-23.4c13.7-10.1,27.2-20.4,40.8-30.6c3.8-2.9,8-5.2,12.5-7c4.4-1.8,8.6-4.2,12.6-6.8
		c15.6-10.5,30.1-22.4,43.7-35.3c3.2-3,5.9-6.4,8.7-9.7c2.8-3.3,5.4-6.9,8.1-10.3c7.6-9.6,16.3-18.2,25.7-26
		c12.7-10.6,25.2-21.5,37.7-32.4c2.1-1.8,4.2-3,6.8-3.6c6.5-1.5,12-5,17.3-9c6.6-5,12.5-10.8,18.2-16.9c10.4-11.2,20-23.1,27.6-36.5
		c2.5-4.4,5.7-7.4,10.1-9.9c11.1-6.1,22-12.5,32.9-18.8c2.1-1.2,4.4-0.9,5.9,0.9c3,3.8,5.9,7.5,8.6,11.5c4.4,6.5,8.4,13.2,12.7,19.8
		c2.2,3.3,4.8,6.1,8.6,7.8c8.1,3.6,11.2,10.6,11.6,19c0.1,3-0.1,6.1-0.6,9.1c-1.2,8.2-3.3,16.2-5.4,24.2c-2,7.1-3.6,14.4-5.3,21.6
		c-0.4,1.8,0.3,3.4,1.8,4.6c1.4,1.1,2.8,2.1,4.1,3.2c4.1,3.7,6,8.5,5.8,14c-0.1,2.6-0.5,5.2-1.2,7.7c-5.2,16.5-14.7,29.6-30.4,37.6
		c-3.2,1.7-5.7,3.6-7.4,6.9c-1.6,3-4,5.7-6.4,8.2c-2.4,2.5-5.2,4.6-7.7,7.1c-2.7,2.8-5.9,5.5-7.6,8.9c-2.5,4.8-5.7,8.5-10.2,11.4
		c-3.4,2.1-5.5,5.6-6.9,9.3c-1.1,2.8-2.2,5.8-2.6,8.8c-1,9.1-1.7,18.2-2.5,27.3c-0.1,1.7,1.5,3.3,3.1,3.5c9.1,1.2,17.5-0.5,24.4-6.7
		c9.5-8.5,20.5-14.7,31.7-20.7c9.3-4.9,18.2-10.4,25.7-17.9c1.3-1.3,2.8-2,4.7-2c8.5,0.2,16.3-2.8,23.9-6.2
		c12.4-5.5,24-12.4,34.7-20.8c3.8-2.9,7.7-6,10.6-9.7c3.7-4.8,7.7-8,14-7.8c11.6-3.8,20.8-10.7,27.7-20.8c1-3.8,4-5.4,7.2-7
		c4.3-2.2,6.1-6.1,6.4-10.7c0.4-5.8-0.2-11.4-5.5-15.2c-1-0.7-1.7-1.9-2.4-3c-2.4-3.5-5.9-5.1-9.9-5.7c-3-0.5-6.1-0.6-9.1-0.8
		c-4-0.3-7.7-1.4-11.2-3.4c-4.6-2.7-6.1-8-3-12.3c2-2.8,4.4-5.5,7.1-7.5c4.9-3.7,10.1-6.8,15.2-10.2c2.9-1.9,6.1-3.5,8.7-5.7
		c5.5-4.6,7.8-10.4,5.8-17.5c-1.2-4.2-2.9-8.2-4.5-12.2c-1.2-3.3-2.9-6.4-3.8-9.7c-1.5-5.4-0.8-10.4,3.8-14.3c0.7-0.6,1.3-1.1,2-1.7
		c2.3-1.9,2.6-4.4,2-7.1c-0.5-2.6-1.3-5.1-1.7-7.6c-0.5-3.4-1-6.9-1.2-10.4c-0.2-3.4,1.5-6.2,4.6-7.2c12.8-4.4,25.8-8,39.5-8.2
		c9.2-0.1,18.3-0.1,27.5-0.3c5.3-0.1,10.4-0.9,15.4-2.7c4.2-1.4,8-3.5,11.1-6.6c3.3-3.2,5.6-6.6,4.1-11.6c-1.2-4,0-7.8,2.2-11.2
		c1.4-2.2,2.8-4.4,4.3-6.6c3.2-4.8,5.8-9.7,6.2-15.6c0.1-1.9,1.3-3.1,2.9-4c6.1-3.1,10-8.3,13.3-14c3.1-5.3,5.8-10.9,7-16.8
		c0.9-4.4,2.9-6.9,7-8.5c2.5-0.9,4-3.4,4.5-6.1c0.6-3.4,1-6.9,1.3-10.3c0.3-3,0.1-6.1,0.4-9.1c0.2-1.7,0.8-3.4,2.4-4.4
		c5.4-3.3,8.7-8.5,11.9-13.7c2.7-4.5,5.2-9.1,7.9-13.6c2.5-4.1,4.9-8.2,7.6-12.2c2.5-3.7,5.3-6.5,10.4-7c6.2-0.6,11.4-4.2,15.9-8.5
		c1.9-1.8,3.7-3.7,5.4-5.7c1.5-1.7,3-3,5.4-3.3c3.6-0.5,6.3-2.8,8.8-5.3c4.3-4.4,8.3-8.9,12.8-13.1c3.2-3,6.2-5.7,7.2-10.4
		c1-4.7,4.4-8.5,8.1-11.7c2.9-2.6,6-5.1,8.9-7.6c4-3.4,7.3-7.4,9.7-12.2c4.6-9.4,9.7-18.6,12.1-28.9c0.6-2.8,2.1-4.6,5.1-5.2
		c2.1-0.4,2.2-2.3,2.2-4.1c0-1.7-0.6-4,0.3-5c3-3.2,1.4-5.4-0.8-7.8c-0.3-0.3-0.5-0.7-0.7-1.1c-0.7-1.2-0.6-2.6,0.7-3.3
		c7.3-4.1,11.1-10.8,14-18.2c4.4-11,6.9-22.5,9.7-33.9c0.3-1.2,0.3-2.8-0.3-3.7c-2.8-4-2.1-8.3-1.3-12.6c0.5-2.6,1.2-5.1,2.1-7.5
		c0.2-0.7,1.2-1.5,1.9-1.6c9.5-1.4,19-3.3,28.6-2.3c11.6,1.2,20.5,6.9,25.6,17.7c2.4,5.2,3.8,10.6,4.5,16.3
		c1.3,10.4,2.1,20.8,2.3,31.3c0.1,6.6,0.9,13.1,3,19.3c1.1,3.3,2.7,6.4,6,8.2c1.1,0.6,3.1,0.2,3.3-0.8c0.2-1.3,0.5-2.6,0.6-3.8
		c0.3-2.2,0.2-4.4,0.9-6.5c1.1-3.3,2.4-6.6,4.3-9.4c6-8.7,16.6-8.9,23.2-0.7c2.5,3.1,4.3,6.7,5.2,10.5c2.4,9.9,2.5,19.9,0.4,29.9
		c-0.5,2.4-2.1,4.7-3.6,6.9c-1,1.4-2.4,2.5-3.8,3.6c-7.1,5-11.2,12-13.5,20.2c-3.4,12.2-7.3,24.2-10.3,36.5
		c-4,16.2-10.7,31.3-17,46.6c-1.3,3.1-3.7,5.9-5.9,8.6c-4.4,5.4-9.2,10.5-13.6,15.9c-3.7,4.4-6.9,8.9-7.7,14.9
		c-0.3,2.4-1.9,4.9-3.5,6.9c-3.6,4.3-7.4,8.6-11.7,12.3c-4.1,3.5-7,7.7-9.4,12.4c-4.4,8.6-6.9,17.9-8.7,27.3
		c-2.2,12-3.7,24.1-4.3,36.4c-0.2,4.5,1.6,6,6.5,5.6c3.4-0.2,6-1.6,6.9-4.9c1-3.7,3.4-4.7,6.7-4.7c1.3,0,2.6-0.1,3.9,0
		c7.1,0.3,13.9-1.2,20.5-3.5c7-2.5,14-4.8,21-7.4c12.9-4.8,26.1-7.1,39.8-5.3c3.7,0.5,6.7-0.2,9.6-2.7c2.2-2,5.1-3.2,7.9-4.6
		c2.7-1.3,5.6-2.3,8.4-3.5c6.1-2.6,11.7-5.8,15.3-11.7c1.2-2,3.3-2.7,5.6-2.9c3.5-0.2,7-0.3,10.4-0.6c5.6-0.5,10.2,1.1,13.8,5.7
		c1.3,1.7,3.5,1.3,4.2-0.4c3.5-8.4,2.3-9,13.3-8c10.5,0.9,20.9-1.3,31.1-3.5c4.3-0.9,8.1-3.1,12-5.2c15.7-8.7,32.5-14.9,50-19
		c9.3-2.2,18.8-4.2,28.4-4c6.8,0.1,12.9-1.9,18.6-5.2c2.3-1.3,4.5-2.7,6.5-4.3c3.2-2.7,6.9-3.4,11-3.5c4,0,7.8,0.6,11.5,2
		c4.5,1.7,9,3.4,13.6,4.8c6.4,2,13,2.3,19.2-0.4c17.7-7.7,36.4-12.1,54.9-17c9.3-2.4,18.6-4.6,28-6.6c3.4-0.7,6.9-0.8,10.3-1.1
		c0.4,0,1.2,0.3,1.1,0.5c-0.1,0.8,0,1.9-0.5,2.3c-9,7-17,15.1-25,23.1c-5.3,5.2-11,9.9-17,14.3c-12.6,9.3-25.1,18.9-37.5,28.5
		c-5.8,4.5-11.7,9.1-16.3,15c-2.5,3.3-6.2,4.9-10.2,5.4c-6,0.8-12.1,1.6-18.2,1.9c-8.3,0.4-16.6,0.1-24.9,0.5
		c-4.8,0.2-9.5,0.9-14.2,1.8c-4.8,0.9-9.3,2.6-13,5.8c-3.4,2.9-7.3,4.6-11.5,6.1c-4.9,1.7-9.9,3.5-14.7,5.5
		c-9.5,3.9-17.8,9.2-23,18.5c-1.5,2.7-3.8,3.1-6.6,2.8c-2.8-0.3-4.9,1.3-6.5,3.7c-0.9,1.4-0.4,3.8,1,4.6c1.1,0.6,2.3,1.3,3.5,1.8
		c4.2,1.6,8.5,1.6,12.9,1.1c4.3-0.5,8.7-0.9,13-1.2c1.7-0.1,3,2.2,2.3,3.8c-0.7,1.6-1.4,3.2-2.5,4.5c-3.7,4.5-8.5,7.4-13.8,9.7
		c-10.1,4.4-20.6,7.4-31.6,7.7c-8.2,0.2-15.3,2.8-22.1,7c-4.8,3-9.7,5.9-14.4,9c-22.1,14.2-45.8,25.1-70.6,33.9
		c-4.9,1.7-9.9,3.4-15,4.4c-4.5,0.9-8,2.5-10.6,6.5c-2.5,3.7-6.4,5.9-10.3,7.9c-7,3.5-14.1,6.9-21.3,10c-8,3.5-16.1,6.7-24.1,10.1
		c-6,2.5-11.8,5.5-17.4,9c-5.5,3.5-11.4,6.3-17.1,9.5c-5.3,3-10.7,5.9-15.9,9.1c-3.7,2.3-7,5.2-9.7,8.7c-3.1,4-3,7,1,10.1
		c9.6,7.6,18.6,15.9,26.9,24.8c5.3,5.8,10.5,11.7,15.7,17.6c4.4,4.9,8.6,9.8,13.7,14c3.3,2.7,6.2,6.2,8.9,9.6
		c12.3,15.3,23.4,31.5,33.5,48.3c3.2,5.2,5.9,10.7,7.2,16.7c1.7,7.8,5.6,14.6,10.5,20.8c2.4,3.1,5.1,6,7.8,8.8
		c7.9,8.2,15.7,16.4,23.8,24.3c5,4.9,10.3,9.4,15.7,13.8c6.7,5.6,13.7,10.8,20.4,16.4c3.6,3.1,6.8,6.7,10.2,10.1
		c2.2,6.2,7.2,6.7,12.8,6.4c6.3-0.3,12.1,0.7,16.9,5.4c1.1,1.1,3,2,4.6,2.1c7.1,0.7,13.5,3.4,19.9,6.3c12.3,5.7,24,12.5,35.4,19.7
		c1.5,0.9,3.3,1.7,4.1,3.1c2.2,3.5,5.3,4,9,3.8c1.9-0.1,3.3,1.6,3.5,3.2c0.9,7.3-0.5,13.9-5.3,19.6c-3.1,3.7-6.1,7.4-9.4,10.9
		c-1.8,1.9-3.9,3.5-6.1,4.9c-3.3,2.3-7.8,2.2-11-0.2c-1.4-1-2.8-2.1-4-3.3c-7-7.6-16-10.3-25.8-10.8c-11.4-0.6-22.7-0.1-33.9,1.6
		c-9.5,1.4-19.1,1.6-28.7,1.7c-11.3,0-21.5-3.3-30.7-9.6c-3.2-2.2-6.4-4.5-9.6-6.8c-2.8-2-5.6-4.1-8.6-6
		c-6.4-4.1-12.3-9.7-16.3-15.6c-3.4-5.1-7.8-9.4-12.5-13.3c-10.9-8.9-22.8-16.1-36.6-19.5c-2.4-0.6-3.8-1.8-4.3-4.2
		c-0.4-1.8-1.8-2.8-3.7-3.2c-2.1-0.4-4.3-0.7-6.4-1.3c-4.4-1.3-8-3.5-9-8.5c-0.4-1.8-1.9-2.9-3.8-3.1c-5.7-0.3-11.3-0.7-17-0.7
		c-11.5-0.1-22.5-2.5-33.1-6.8c-2-0.8-4.1-1.5-6.1-2.3c-6.9-2.8-14-4.8-21.6-4.2c-5.5,0.4-10.2-1.9-14.1-5.7
		c-2.2-2.1-4.3-4.3-6.2-6.7c-4.3-5.2-9.6-8.6-16.3-10.3c-9-2.2-17.2-6.2-25.1-10.9c-6.4-3.8-12.4-8.1-17.1-14.1
		c-1.9-2.5-4.2-4.3-7.4-5c-11.4-2.8-22.8-5.8-34.2-8.7c-1.6-0.4-3.6,0.7-4,2.5c-1.5,7-5.9,12.6-8.4,19.1
		c-2.8,7.2-7.3,12.5-13.6,16.9c-5.7,4-10.9,8.7-16.4,13c-4.9,3.8-8.7,8.3-11.8,13.8c-8.4,14.8-18.6,28.5-29.7,41.4
		c-7.1,8.3-14.6,16.2-23.2,23c-2,1.6-4,3.4-5.9,5.2c-5.9,5.7-9.3,12.6-9.4,20.9c0,0.9-0.1,1.7-0.1,2.6c0,8.5-2.4,16.4-6.5,23.7
		c-5.1,9.1-10,18.4-15.9,27.1c-13.1,19.2-23.6,39.7-32.6,61c-3.1,7.2-6.2,14.4-9.8,21.4c-3.7,7.4-7.6,14.7-11.9,21.8
		c-3.9,6.3-7.9,12.4-10,19.7c-1.2,4-3.9,7.8-6.5,11.2c-3.7,4.9-7.9,9.3-11.8,14c-3.7,4.3-7.3,8.7-10.8,13.1c-3.2,4.2-5.9,8.8-6.9,14
		c-1.1,5.4-3.8,9.7-7.1,13.8c-3.1,3.7-6.3,7.3-9.6,10.7c-11,11.2-22.7,21.7-35.8,30.5c-4.8,3.2-8.8,7.1-11.9,12
		c-3.7,5.9-7.5,11.8-10.7,18c-7.9,15.6-16.4,30.8-25.6,45.6c-2.6,4.1-4.3,8.4-5.4,13.2c-3.3,14.5-8.5,28.4-15,41.8
		c-2.6,5.5-6,10.6-9.2,15.8c-0.9,1.4-2.5,2.3-3.9,3.4c-0.8,0.6-3,0.2-3.5-0.7c-5.4-8-9.4-16.7-11.3-26.2c-0.6-2.9-0.4-6.1,0.2-9.1
		c0.7-3.5,0.1-6.3-2.9-7.8c-5.5-2.8-8.2-7.5-9.9-13.1c-0.6-1.8-2.6-2.4-4.2-1.6c-3.7,1.6-6.5,4.4-9.4,7c-3.2,2.9-6.3,6-9.7,8.8
		c-1.6,1.4-3.7,2.3-5.6,3.3c-2.6,1.3-5.5-0.1-6.1-2.8c-0.9-3.8-1.5-7.7-2.7-11.4c-2-6.2-6.1-10.6-12.6-12.1c-4.2-1-8.5-1.6-12.9-2.2
		c-3.1-0.4-6-1-8.8-2.4c-2.9-1.5-4.7-3.8-5.5-6.9c-0.5-1.7,0.1-3.8,1.4-4.7c0.4-0.2,0.6-0.6,1-0.8c11.1-5.2,18.8-14,25.6-23.7
		c4.3-6.1,8.1-12.4,12.3-18.5c3-4.3,5.9-8.7,9.4-12.5c5.1-5.5,9.2-11.6,12.6-18.2c3-5.8,5.7-11.8,8.7-17.6
		c3.1-6.2,6.2-12.5,9.7-18.6c5.3-9.2,11.8-17.3,21.6-22.1c1.7-0.8,2.6-2.1,3-4c2.1-10.8,6.1-20.9,10.5-30.9
		c2.8-6.4,5.7-12.7,10.3-18.1c3.7-4.4,5.9-9.7,7.6-15.1c1.6-5,2.7-10.1,4.1-15.1c0.8-2.9,1.5-5.9,3.4-8.4c6-7.6,10.1-16.3,14.1-25
		c8.5-18.7,15.9-37.7,21.8-57.4c1.2-4.1,2.2-8.4,6.8-10.6c2-1,2.6-3.4,3.2-5.5c1.2-4.3,1-8.6,0.5-13c-0.2-1.8,0.6-3.3,2.4-4.2
		c9.9-4.5,12.2-12.8,11.1-22.7c-0.1-0.9-0.5-1.7-0.6-2.5c-0.3-2.1,0.3-3.5,2.2-4.2c2.8-1.1,5.7-2,8.5-3.2c1.7-0.7,2.7-2.1,3-4
		c0.3-1.7,0.2-3.5,0.7-5.2c0.3-1.1,1.2-2.4,2.2-2.9c1.7-0.8,3.1-1.6,3.5-3.5c2.1-10.8,6-20.9,10-31.1c2-5.3,3.8-10.7,3.8-16.5
		c0-1.7-1.7-3.5-3.3-3.2c-0.9,0.1-1.7,0.1-2.6,0.4c-15.7,4.7-29.9,12.1-42.5,22.5c-5.7,4.7-11,10-13.2,17.5c-0.8,2.7-2.6,4.4-5,5.8
		c-10.3,5.9-19.3,13.5-27.4,22.1c-11.1,11.7-23.6,22-35.9,32.5c-5,4.3-10.4,8-16.6,10.3c-2.7,1-4.3,2.8-5.2,5.4
		c-4.8,15.5-12.4,29.7-19.7,44.1c-8.8,17.3-22.1,30.1-38.4,40.1c-4.4,2.7-9.3,4.9-14.1,6.7c-6.6,2.5-13.6,3.1-20.6,1.4
		c-6.3-1.5-11.1-4.9-13.1-11.5c-0.6-2.1-1.3-4.2-1.9-6.3c-1.1-3.7-3.7-5.8-7.3-6.8c-8.9-2.3-17.5-5.1-26-8.6
		c-9.7-4-13.8-6.1-14-19.2c-0.1-7.8-1-15.6-0.3-23.4C1889.3,1690.4,1888.9,1684.7,1888.9,1679.8z"/>
	<path class="st1" d="M2240.4,355.9c-1.3,0-2.6,0.1-3.9,0c-3.9-0.4-6.4,1-8.6,4.4c-4.7,7.3-9.7,14.5-15.2,21.3
		c-9.8,12.1-16.1,25.8-19.8,40.9c-1.9,7.6-3.6,15.3-5.6,22.9c-2.7,10.6-6.6,20.7-12.6,30c-7.9,12.5-15.2,25.5-22.9,38.1
		c-3.6,5.9-7.6,11.7-11.8,17.2c-8.3,10.7-16.9,21.1-25.6,31.5c-3.1,3.7-5.5,7.7-7.6,12.1c-5.9,12.1-12.3,24-18.5,36.1
		c-2,3.9-4,7.8-5.8,11.7c-0.9,1.9,0.5,4.6,2.5,5.3c3.3,1.2,6.8,1.7,10.3,1.4c6.5-0.6,13-1.3,19.5-2.1c1.7-0.2,3.4-0.9,5-1.6
		c17.6-7.8,36.2-12.7,54.6-18.1c3.3-1,6.8-1.8,10-2.9c1.1-0.4,2.4-1.3,3-2.3c4.8-7.8,12.3-12.3,20.3-15.9c6-2.7,12-5.2,18.1-7.4
		c8.2-3,16.2-6.3,24.1-10.1c6.7-3.2,13.7-5.7,20.6-8.4c6.9-2.7,13.8-5.3,20.7-8.1c6-2.5,12.1-5,16.8-9.8c1.9-1.9,4.4-2.7,7.1-3
		c8.2-0.8,16.5-1.7,24.7-2.3c5.2-0.4,10.5-0.6,15.7-0.5c23.4,0.4,45.9-4.6,68.3-10.7c11.9-3.2,23.1-7.8,32.1-16.7
		c0.4-0.4,1.6,0,2.4,0.2c0.3,0.1,0.5,0.7,0.6,1.1c0.1,2.1,0.5,4.4-0.1,6.4c-1.1,3.7-2.6,7.4-4.3,10.9c-1.7,3.5-3.8,6.9-6,10.1
		c-12.9,18.4-28.5,34.1-46.7,47.3c-5.3,3.8-10.9,7.3-17.2,9.4c-3.8,1.3-7.5,2.2-11.5,0.5c-3-1.3-6-0.6-8.9,0.6
		c-2.8,1.2-5.7,2.4-8.6,3.2c-6.5,1.8-12.9,1.8-18.9-2c-1.8-1.2-3.9-2-5.8-3c-4.7-2.3-9.3-1.7-13.7,1.1c-0.7,0.5-1.5,0.9-2.1,1.5
		c-6.5,6.9-14.7,10.4-23.4,13.6c-13.9,5.2-27.1,12.1-39.3,20.6c-3.9,2.7-7.8,5.5-10.2,9.9c-0.4,0.8,0.3,3.1,1.1,3.4
		c1.7,0.5,3.3,1.2,5,1.3c3.9,0.3,7.8,0.3,11.8,0.5c3.5,0.2,7,0.4,10.4,0.9c2.7,0.4,4.7,2.1,6.3,4.3c1.4,1.9,1.1,4.7-0.9,5.5
		c-10.3,4.1-18.9,10.7-27,18.1c-5.9,5.4-12.7,9.1-20.5,11c-3.3,0.8-6.6,2.2-9.8,3.6c-19.8,8.7-40.4,13.7-62,14.9
		c-3.6,0.2-6.8,0.8-9.7,3.1c-6.2,4.9-13.3,8.3-20.7,11.1c-6.9,2.7-13.9,5.1-20.9,7.6c-2,0.7-4.2,1.5-6.3,1.5c-5.9,0.2-11,2.5-16.1,5
		c-6.2,3.1-12.4,6.4-18.6,9.5c-4.7,2.4-9.5,4-15,3.6c-3.4-0.3-7,0.5-10.3,1.4c-12.7,3.4-24.8,8.1-36.6,14
		c-7.3,3.6-12.8,8.8-16.9,15.8c-6,10.2-11.2,20.8-15,31.9c-4.8,14-9.4,28.1-13.4,42.4c-6.9,24.4-14.6,48.4-23.6,72.1
		c-2.9,7.7-6.1,15.4-9.7,22.9c-9.1,19.4-22.4,35.3-40.9,46.5c-3.4,2.1-6.2,4.7-8.9,7.5c-6.6,6.9-13.5,13.7-20.5,20.2
		c-3.5,3.3-7.2,6.7-11.4,8.6c-5.5,2.5-7.8,6.7-9.7,11.7c-2.3,6.1-4.4,12.3-6.8,18.4c-1.1,2.8-2.1,6-4.1,8.1c-2.9,3.1-4,6.7-4.5,10.6
		c-0.5,3.9-0.8,7.8-0.9,11.7c-0.3,6.5-0.3,13.1-0.6,19.6c-0.1,3.1-0.3,6.2-2,8.8c-2.3,3.6-2.7,7.1-1.3,11.1
		c1.1,3.3,1.6,6.8,2.1,10.2c1.2,9.8-4.5,18.3-14,20.7c-3.8,1-7.7,1.4-11.6,1.8c-6.6,0.6-12.9,2.3-19.2,4.1
		c-8.4,2.4-16.3,6-23.3,11.5c-9.3,7.3-19.2,13.6-30.3,17.9c-2.4,0.9-4.9,1.7-7.4,2.5c-1.1,0.4-2.7-0.6-2.9-1.8
		c-0.7-3.9-1.4-7.7-2-11.6c-0.5-3-0.8-6-1.2-9.1c-0.2-1.4-2.5-2.5-4.2-1.9c-1.1,0.3-2.3,1.9-2.1,3c0.3,1.3,0.8,2.5,1.1,3.8
		c0.1,0.8,0.2,2-0.3,2.4c-7.1,5.9-12.5,13.3-18.1,20.5c-7.9,10.2-15.2,11.1-26,3.9c-9.2-6.2-12.3-14.6-8.8-24.9
		c1.2-3.7,2.9-7.3,4.7-10.8c6.1-11.6,12.5-23,18.6-34.6c4.6-8.9,9.1-17.9,13.3-26.9c2.2-4.7,3.9-9.7,4.6-15c0.5-3.4,0.5-7,1.4-10.3
		c1-3.6,5.3-4.3,7.3-7.2c2.5-3.6,5.3-6.9,7.5-10.7c8.1-13.6,13.9-28.1,18.9-43c0.8-2.4,1.2-5.2,0.8-7.7c-1.4-9,0.6-17.3,4.1-25.5
		c2.6-6,5.3-11.9,8-17.9c2.9-6.3,6-12.6,8.8-19c1.9-4.4,3.7-8.9,4.2-13.7c0.1-1.2-1.2-2.6-2.4-2.4c-1.7,0.3-3.5,0.3-5,1
		c-8.6,3.4-16.4,8.1-23.6,13.9c-3.8,3.1-7.6,5.6-12.3,7.1c-6,1.8-10.8,5.6-15,10.2c-2.9,3.2-5.7,6.6-8.6,9.8
		c-3.8,4.3-8.2,7.9-13.6,9.9c-7.5,2.8-13.6,7.7-19.3,13.2c-5,4.9-9.8,9.9-14.7,14.9c-4.9,5-9.7,10-14.7,14.9
		c-5,4.9-10.3,9.4-16.3,13.1c-5.3,3.3-10.9,5.8-17.1,5.8c-6.4,0-11.9,2.3-17.5,4.8c-3.2,1.4-6.4,2.9-9.7,4c-4,1.3-8.2-0.5-10-4.1
		c-5.2-10.4-7.3-21.4-5.3-33c0.4-2.1,1-4.2,1.5-6.4c0.7-3,0.8-6-0.3-9c-1.8-5-1.9-10.3-1.9-15.5c0-9.2,0.3-18.3,0.3-27.5
		c0-4.8-0.2-9.6-0.4-14.4c-0.1-1.8-1.1-3.3-2.7-4.2c-1.3-0.8-4.3,0.3-5.8,2c-0.9,1-1.8,2-2.5,3c-1.2,1.8-2.3,3.7-3.4,5.6
		c-1.1,1.9-2.2,3.8-2.9,5.8c-2.5,6.9-7.3,11.5-13.3,15.6c-13.3,9.1-26.4,18.6-39.6,27.8c-4.7,3.2-9.3,6.4-14.2,9.3
		c-9.2,5.3-17,12.2-24,20.1c-3.5,3.9-6.7,8-10.2,11.9c-3.5,3.9-7.1,7.7-10.9,11.3c-7.1,6.7-15.4,11.4-24.6,14.4
		c-2.6,0.8-5.1,1-7.5-0.8c-5.4-4.2-11.3-3.8-17.4-1.7c-7.2,2.6-13.3,6.4-17,13.4c-1.2,2.2-3.2,2.8-5.4,3c-4.5,0.4-8.6-0.7-12.8-2.3
		c-2.1-0.8-4.3-0.9-6.3,0.2c-6.6,3.6-13.5,2.9-20.4,1.4c-2.5-0.6-5-1.5-7.5-2.3c-3.7-1.1-7.9-1.6-11.1-3.6c-3.5-2.1-2.9-7-4.5-10.5
		c-2.4-5.4-6.1-9.6-11.6-11.9c-5.6-2.3-11.4-4.4-17.1-6.4c-1-0.4-2.6,0.1-3.6,0.6c-10.8,5.4-20.3,2.2-29.5-4
		c-8.9-9.7-20.8-14-32.7-18.3c-1.2-0.4-2.5-0.8-3.6-1.5c-1.1-0.7-2.2-1.7-2.7-2.8c-1.4-3.2-2.8-6.4-3.8-9.7
		c-3.6-12.6-7.1-25.2-10.5-37.8c-1-3.8-1.8-7.6-3-11.4c-1.8-5.5-4.1-10.6-9.1-14c-2.8-2-3.5-4.7-3.4-8c0.4-12.3,2.1-24.3,6.9-35.8
		c2.7-6.5,4.8-13,4.2-20.2c-0.3-3.8,0.8-7.8,1.6-11.6c1.2-5.9,4.1-10.6,10.1-12.6c2.4-0.8,3.6-2.3,4-4.6
		c2.1-10.7,8.9-17.7,17.6-23.3c3.3-2.1,6.7-4.1,10.1-6.1c3.4-2,6.8-4,10.1-6.1c6.7-4.3,12.4-9.6,14.7-17.7c0.8-2.7,2.8-4.3,5.6-4.9
		c10.2-2.2,18.2-8.1,25.4-15.3c5.9-5.9,11-12.4,15.5-19.3c5-7.7,9.9-15.4,14.4-23.4c6.2-11.1,13.6-21.4,22.2-30.7
		c19.5-21.2,39.1-42.3,58.7-63.3c8.9-9.6,18.1-18.9,27.2-28.3c3.4-3.5,6.3-7.1,7.8-11.9c0.9-2.8,2.7-5.5,4.6-7.8
		c6-7.6,13.2-13.9,21.4-19c3.6-2.3,7.5-2.5,11.3-0.8c3.2,1.4,6.1,3.3,9,5.2c3.3,2.1,6.4,4.5,9.8,6.5c2.2,1.3,4.7,2.4,7.1,3.2
		c4.9,1.6,9.8-0.2,12.5-4.5c1.6-2.6,2.8-5.4,4.1-8.1c3.9-8,9.8-14.4,16.7-19.8c1.7-1.3,3.6-2.5,5.6-3.3c2.9-1.1,6.1-1.4,8.6,1.1
		c2.3,2.3,4.8,3.2,8.1,3.2c5.2-0.1,10.4,0.7,15.7,0.7c5.8,0,9.1,2.1,9.4,8.1c0,0.6,1,1.5,1.6,1.5c0.7,0.1,1.9-0.4,2.2-0.9
		c0.9-1.5,1.4-3.1,2.1-4.7c1.3-3.2,2.6-4,5.9-3.9c6.2,0.1,12.1,1.5,17.4,4.8c3.7,2.3,7.5,4.4,11.4,6.4c11.1,5.6,18.6,14.2,22.1,26.2
		c1.1,3.8,2.3,7.5,3.7,11.2c1.4,3.7,3.2,7.1,6.1,10c2.6,2.7,6.3,3.7,9.5,2.1c2.7-1.3,5.5-2.7,7.8-4.7c3.3-2.8,6.5-5.9,9.1-9.3
		c5.3-6.9,10.5-13.9,15.3-21.2c9.4-14.7,17.9-30,24.8-46c5.6-13,13.8-24.2,23.6-34.3c2.7-2.8,5.8-3.5,9.5-3c7.8,1.2,13.9,5,18,11.8
		c1.1,1.9,2.3,3.7,3.3,5.6c4.9,9.4,12.6,14.1,23.3,13.8c1.3,0,2.6,0.1,3.9,0c8.4-0.2,16.4,1.6,24.3,4.5c7.3,2.8,14.7,5.4,22.1,8.2
		c2.8,1,3.8,3.1,2.7,6.3c-0.7,2.1-1.3,4.2-2.4,6.1c-2.1,3.8-4.2,7.7-6.7,11.2c-3.5,5-7.1,9.9-11.2,14.5
		c-18.7,21.3-31.5,45.9-41.4,72.2c-2,5.3-4.5,10.2-8.2,14.7c-3.6,4.3-6.2,9.5-8.5,14.6c-5.9,13.1-11.7,26.3-17.1,39.6
		c-9.8,24.3-18.6,48.9-25.7,74.1c-1.1,3.8-1.8,7.6-2.7,11.4c-0.3,1.4,0.6,3.2,1.4,3.1c0.8-0.1,1.8-0.3,2.3-0.8
		c1.5-1.6,2.8-3.3,4.2-5c1.6-2.1,3.1-4.2,4.8-6.2c2.4-2.8,5.4-4.5,9.1-4.2c3.9,0.3,7.8,0.8,11.7,1.1c3.5,0.3,6.9,0.9,10.4,1
		c4.1,0.1,7.9-1.3,10.5-4.4c4-4.9,9.2-8,14.5-10.9c13-7.1,26.2-14,39.3-20.9c7.3-3.9,14.7-7.7,22.1-11.4c3.2-1.6,5.8-3.6,7.3-7.1
		c1.8-4.2,5.6-6.6,9.4-8.8c3.7-2.2,7.6-4.3,11.3-6.6c0.6-0.3,0.9-1.5,0.9-2.2c-0.1-0.8-0.6-1.7-1.1-2.3c-3.2-4.5-4-9.6-3.9-14.9
		c0.1-4.8,0.5-9.6,2.3-14.2c2.5-6.5,4.6-13.2,7.7-19.4c4.7-9.3,9.8-18.5,15.3-27.4c5.9-9.6,12.6-18.8,18.8-28.4
		c4.7-7.2,11-12.3,18.8-15.7c3.6-1.6,7.3-2.9,11-4.3c4.1-1.5,8.2-3.1,12.3-4.5c6.4-2.2,11.6-6,15.6-11.4c1.3-1.7,2.5-3.6,4-5.2
		c2.1-2.2,4.2-4.7,6.8-6c4.3-2.1,6.6-5.4,8.6-9.4c3.1-6.2,6.4-12.4,9.8-18.5c2.1-3.8,4.6-7.4,7-11c1.7-2.6,3.9-4.8,7-5.6
		c4.1-1.1,6.9-3.8,9.1-7.1c3.9-5.8,7.8-11.6,11.1-17.7c3.6-6.5,6.1-13.6,9.9-19.9c3.5-6,8.2-11.2,12.2-17c2.9-4.3,5.4-8.9,8.2-13.4
		c6.2-10.1,10.8-20.8,13.2-32.5c1.6-8.1,3.8-16.1,8.8-23c0.9-1.3,1.1-3.3,1.2-5c0.9-10,6.3-17,14.5-22.1c4.5-2.7,9.1-5.2,13.5-7.9
		c3.8-2.3,7.2-4.9,8.8-9.3c1.4-3.8,4.2-5.4,8.1-5.3c0.4,0,0.9,0,1.3,0c2-0.1,3.3-1.2,3.7-3c0.7-3,1-6,1.6-9c0.4-1.7,1-3.3,1.9-4.8
		c1.9-3.3,4.9-4.9,8.7-4.7c1.7,0.1,3.4,0.6,5.1,1c1.6,0.3,2.6-0.5,3.1-1.7c1.9-3.9,3.5-8,5.5-11.9c7.9-15.6,17.2-30.3,27.9-44.2
		c4-5.2,8.2-10.2,13.6-14c2.4-1.7,3.5-3.7,3.4-6.6c0-0.4,0.1-0.9,0.2-1.3c0.6-3.4,2.6-5.6,5.9-6.2c3.8-0.8,7.7-1.2,11.6-1.8
		c2.2-0.3,4.4-0.4,6.4-1.1c1.6-0.5,3.7-1.3,4.4-2.6c2.4-4.7,6.4-5,11-5.5c5.6-0.6,11.2-1.8,16.7-3.2c7.8-2,15.5-2.1,23.2,0.6
		c0.8,0.3,1.7,0.4,2.5,0.7c6.6,2.5,12.9,1.3,18.8-2.1c4.1-2.4,8-5.2,12-8c4.3-3,8.4-6.3,12.7-9.2c6.3-4.3,13-7,20.9-6.3
		c1.3,0.1,2.6,0.1,3.9,0c2.7-0.2,5.3-0.9,6.8-3.3c4.7-7.5,11.4-8.6,19.4-6.4c5,1.4,10.2,2.5,15.2,3.8c1.8,0.5,3,1.8,3.4,3.6
		c2.4,9.3,4.8,18.6,6.9,27.9c1.3,5.6,1.6,11.4,0.2,16.9c-1.4,5.3,0,9.4,3.8,12.9c2.7,2.5,3.9,5.8,4.3,9.3c0.6,6.2,3.1,11.8,6.2,17.1
		c3.5,6,7,12.1,7.9,19.2c0.3,2.3,2.1,3.7,3.7,5.2c2.6,2.6,3.8,5.8,4,9.4c0.4,6.6,0.2,13.1-1.3,19.5c-1.6,6.8-3.1,13.6-5.1,20.3
		c-5.4,18-12.2,35.5-20.2,52.4c-1.9,3.9-3.9,7.8-6,11.6c-1.3,2.4-3.4,3.9-6.3,4.1c-0.9,0.1-1.7,0.2-2.6,0.4
		c-3.9,0.9-5.8,3.5-6.1,7.5c-0.1,1.7,0.1,3.6-0.4,5.2c-0.7,2.5-1.6,5-2.8,7.3c-1.5,3.1-5.8,4.8-9,3.6c-2.4-0.9-4.8-2-7.1-3.2
		c-3-1.5-5.8-1.4-8.8-0.1c-2,0.9-4,1.7-5.9,2.8c-3.8,2.1-7.8,3.8-11.9,5.2c-3.7,1.2-7,3.4-10.4,5.4c-15.5,9-30.9,18.1-46.3,27.1
		c-6.8,4-14,7-21.6,9.1c-6.8,1.8-13.7,2.4-20.8,1.6c-11.7-1.3-18.8-8.5-20-20.5c-0.2-1.7-0.1-3.5,0-5.2c0-1.9,0.8-3.5,2.4-4.4
		c7.2-4.3,13.3-9.9,18.9-16c4.7-5.2,9.1-10.6,11.6-17.3c0.8-2.1,1.8-3.9,4.1-4.9c3.5-1.5,5.4-4.5,6.4-7.9c1.5-5,3.1-10.1,3.7-15.2
		c1.9-17.8,2.2-35.7-1.8-53.4c-1-4.2-1.5-4.6-6.3-4.6C2243,355.8,2241.7,355.8,2240.4,355.9C2240.4,355.8,2240.4,355.8,2240.4,355.9
		z M1281.8,958.1c-0.1,3.5,0.6,7.3,3.3,10.5c0.8,1,2.5,1.6,3.4,1c1-0.8,1.9-1.7,3-2.5c3.7-2.7,6.1-2.7,9.3,0c0.6,0.6,1.1,1.4,1.7,2
		c1.3,1.4,3,1.9,4.7,1.3c2.9-1,5.7-2,8.5-3.3c6-2.6,11.8-5.6,17.8-8.1c8.2-3.4,16.4-5.7,25.3-2.3c2.5,1,5.1,0,7.4-1.6
		c3.3-2.2,5.8-5.3,8-8.5c2.7-4,5.1-8.1,7.9-12c2.3-3.1,4.9-6.1,7.7-8.8c1.5-1.5,3.8-2.3,6.1-1.7c2.8,0.8,4.9,0.5,6.7-2.2
		c2.5-3.7,6.2-4.5,10.4-3.7c2.3,0.4,4.3-0.1,6.2-1.4c10.6-6.9,21.3-13.7,31.7-20.8c5.4-3.7,10.4-7.9,15.3-12.2
		c3-2.6,5.4-5.7,6.3-9.7c0.5-2.4,1.8-3.9,4-4.6c2.9-1,5.5-2.6,7.4-5.1c5-6.7,4.9-17.3-0.3-24.5c-0.6-0.8-2.6-1.3-3.5-0.8
		c-2.3,1.2-4.7,2.3-7,3.5c-8.2,4.2-16.8,7.2-25.8,9.1c-2.5,0.5-5.1,0.2-7.7,0.1c-1.6-0.1-3-2.8-2.2-4c1.7-2.5,3.5-4.9,5.3-7.4
		c1.3-1.7,0.4-4.4-1.7-5.3c-1.2-0.5-2.4-1-3.6-1.5c-6.8-2.4-13.8-2.1-20.7-1.1c-8.6,1.2-17.1,3.2-25.5,5.5
		c-13.7,3.9-11.8,5.6-17.6-8.6c-1.3-3.2-2.2-6.6-3.2-9.9c-0.6-2.1,0.7-4.5,3-5c13-2.7,24.8-8.1,36-15c12.7-7.8,24.4-16.9,34.6-27.7
		c3-3.2,6.3-5.9,10.5-7.5c8.5-3.4,14.6-9.3,18.3-17.7c1.6-3.8,3.8-6.5,8.4-7.2c3-0.4,5.1-3.2,6.9-5.7c5.9-8.4,8.9-17.8,10.2-27.9
		c0.2-1.5-1.3-3.7-2.7-4c-9.1-1.6-17.5-5.2-26-8.5c-4.4-1.7-9.1-3-13.7-4.1c-9.3-2.2-17.3,0.5-23.9,7c-2.5,2.4-4.5,5.3-6.6,8.1
		c-7.8,9.9-15.5,20-23.5,29.8c-8.3,10.1-16.9,20-25.2,30.1c-3.6,4.4-7.1,8.9-9.8,13.9c-9.8,18.5-19.2,37.2-28.7,55.7
		c-3.5,11.4-10.2,21.1-16.7,30.9c-4.1,6.2-8.1,12.4-12,18.7c-2.5,4.1-4.9,8.3-5.6,13.2c-0.5,3.6-2.1,6.5-3.9,9.6
		c-6.2,10.1-11.1,20.7-14.6,32C1283.5,944.7,1281.7,951,1281.8,958.1z"/>
	<path class="st1" d="M978.3,1290.3c-0.6,7.2-0.3,14.5,0.9,21.9c0.8,4.7,1.2,9.5,1.2,14.3c0.1,9.1-3.2,17-9,23.9
		c-1.7,2-3.7,3.7-5.4,5.7c-1.7,2-3.8,3.8-4.8,6.2c-2.7,6-7,11-10.4,16.5c-2.5,4.1-4.7,8.4-6.7,12.7c-3,6.3-6,12.6-10.3,18.2
		c-3.2,4.2-5,9.1-6,14.4c-1.3,6.9-2,13.8-2.2,20.8c-0.2,6.1-0.8,12.2-2.2,18.2c-1.2,5.2-3,10-6.5,14.1c-7.7,9.1-12.9,19.6-18.2,30.2
		c-2.5,5.1-4.5,10.4-6,15.9c-3.9,14.8-9.8,28.8-17.5,42.1c-6.4,10.9-12.1,22.2-18.1,33.4c-5.8,10.8-11.4,21.6-17.2,32.3
		c-9.1,16.7-21.1,30.9-36.3,42.5c-5.6,4.3-10.3,9.3-14.6,14.9c-6,8-11.6,16.4-16.4,25.2c-2,3.8-4.4,6.4-9.1,5.6
		c-1.3-0.2-2.6,0-3.9-0.1c-9.6-0.2-17.9,3.3-25.2,9.3c-3.4,2.8-6.5,5.8-9.4,9c-6,6.6-13.3,11.3-21.3,14.9c-4,1.8-8,3.5-12.1,5
		c-10.2,3.8-20.5,7.3-30.4,12.1c-2.2,1.1-4,0.6-6-0.8c-6.4-4.5-13.1-4-19.6-0.2c-1.5,0.9-2.8,2.2-4.3,2.9c-1.1,0.5-2.5,0.7-3.7,0.6
		c-4.4-0.4-8.4-2.3-12.3-4.3c-3.1-1.6-6.2-3.3-9.2-5.1c-2.5-1.4-4.8-1.7-7.4-0.2c-1.1,0.6-2.6,0.9-3.7,0.7c-3-0.6-5.9-1.4-8.8-2.4
		c-1.1-0.4-2.2-1.5-2.8-2.5c-2.7-5.1-6.3-9.4-10.5-13.3c-2.9-2.7-6.2-4.8-10-6c-3.2-1.1-7.6,0.6-8.7,3.9c-1.1,3.3-2.1,6.7-2.4,10.1
		c-0.8,8.7-2.8,17.2-4.9,25.7c-2.9,11.8-6.4,23.6-7.3,35.8c-0.3,4.3-1,8.8-0.3,13c2.1,13.7,0,27-3,40.2c-1.5,6.8-3.1,13.6-4.8,20.4
		c-2.4,9.8-4.6,19.6-5.2,29.6c-0.6,8.8-2.3,17.3-4.3,25.8c-2.1,8.9-4.7,17.7-4,27c0.1,1.2-0.4,2.6-0.8,3.8c-2.4,5.8-2.9,11.9-2.6,18
		c0.3,7.4,0.8,14.8,1.4,22.2c0.5,6.5,1.4,13,1.9,19.5c1.1,12.6-3,23.2-12.3,31.7c-2.9,2.6-5.9,5.2-8.8,7.8c-3.2,2.9-6.5,5.8-9.7,8.8
		c-5.1,4.9-9,10.7-11,17.5c-1.1,3.9-2.8,7.1-6.1,9.7c-2.9,2.2-3.9,5.7-4.8,9.1c-2.4,8.7-6.3,10.2-14.4,9.7c-1.3-0.1-2.6-0.3-3.9-0.5
		c-4.6-0.7-8.2-3.1-10.5-7.1c-1.8-3-2.9-6.3-4.4-9.5c-1.6-3.4-4.7-4.2-7.3-1.6c-4.1,4-8.8,6.8-14,9.2c-4.3,2-8,5.3-11.8,8.1
		c-6,4.4-11.7,9.1-17.8,13.4c-3.9,2.7-8.2,5-12.4,7.2c-2.8,1.5-5.9,1.8-8.9,0.8c-1.1-0.4-2.2-1.3-3-2.2c-1.2-1.2-0.4-2.6,0.5-3.4
		c5-4.1,7.1-9.7,8.4-15.8c1.5-7.3,2.3-14.6,2.5-22.1c0.5-15.7,1.1-31.4,1.7-47.1c0.1-2.2,0.3-4.4,0.4-6.5c0.2-5.3,1.3-10.4,3.6-15.2
		c3.5-7.3,4.9-15.1,3.5-22.9c-1.2-7-1.2-13.9-0.3-20.8c0.2-1.8,0.3-3.7-1.2-4.8c-2.1-1.7-2.3-3.4-1.1-5.6c4-7.3,8-14.5,11.9-21.8
		c1.3-2.4,2.1-4.8,0.8-7.5c-2.1-4.5-1.9-9.3-2-14.1c-0.2-12.7,1.5-25.3,3.9-37.7c2.6-13.7,5.5-27.4,11.2-40.2c0.8-1.7,0.7-3.4-0.3-5
		c-4.9-8.6-6.4-18-6.4-27.7c0-9.2,0.3-18.3,1.4-27.4c1.3-10.8,2.5-21.7,3.2-32.5c0.8-11.7,0.9-23.4-1.4-35.2
		c-2.1-10.7-1.4-21.7,0.5-32.6c1.5-8.6,3.1-17.2,5-25.7c3.8-16.7,5.8-33.5,3.7-50.6c-0.5-4-0.2-7.9,1-11.7
		c1.7-5.2,1.9-10.2,0.4-15.4c-1.6-5.7,0.4-10.3,4.9-13.9c3.7-3,7.7-5.7,11.5-8.6c3.9-3,6.9-6.8,8-11.6c3.3-14,5.4-28.3,5.1-42.7
		c0-2.7-1-4.3-3.4-4.8c-11.2-2.5-18.1-10-23.4-19.4c-0.8-1.5-1.8-3-2.4-4.6c-7.8-18.5-15.9-36.8-20.7-56.4c-2-8.5-3.9-17-1.8-25.8
		c0.4-1.8-0.4-3.4-1.7-4.7c-6.2-6.9-7.7-15.4-8.6-24.2c-0.1-0.8,0.2-1.7,0.4-2.5c0.6-1.9,3.3-3.5,1.5-5.8c-1-1.3-2.9-1.8-4.2-2.9
		c-0.9-0.8-2-2-2-3c-0.2-4.8-0.1-9.6-0.2-14.4c0-8.8-1-17.4-3.7-25.8c-0.4-1.2-0.9-2.4-1.4-3.7c-0.9-2.3-2-2.9-5-2.9
		c-0.9,0-1.7,0.2-2.6,0.1c-1.4,0-2.4-1.5-2-2.6c2.6-7.3,7.4-12.8,13.7-17c9.9-6.7,20.4-11.7,32.6-12.3c4.3-0.2,8.6-1.2,12.9-1.7
		c5-0.6,9.1-3,12.6-6.4c2.5-2.4,4.8-5.1,7.2-7.6c3-3.1,5.9-6.5,9.2-9.2c2.3-1.9,5.1-3.4,7.9-4.5c1.9-0.7,4.3-0.8,6.4-0.6
		c3,0.3,5.9,1.4,9,1.8c6,0.8,11.3-1,15.4-5.4c2.4-2.5,4.7-5.2,6.6-8.1c3.9-6,9.7-8.5,16.3-9.7c1.3-0.2,4.1,0.7,4.6,1.9
		c2.4,6,7.4,10.6,8.4,17.4c1,6.6,4.7,12.2,8.6,17.5c3.6,4.9,7.5,9.7,11.2,14.5c5.9,7.6,11.1,15.6,13.1,25.3c0.2,1.1,1.5,2.6,2.4,2.7
		c0.9,0.1,2.3-1.1,3-2c3.8-5.3,7.7-10.6,11.2-16.1c10.1-15.8,20-31.7,29.9-47.6c1.8-3,3.6-6,5.4-8.9c1-1.6,2.5-2.6,4.3-2.7
		c6.9-0.1,12.6-3.4,17.9-7.2c3.9-2.8,7.7-5.7,11.5-8.7c6.9-5.4,14-10.4,22.9-12.2c1.9-0.4,2.8-1.9,2.9-3.8c0-3.2,1-5.8,3.3-8.3
		c1.7-1.9,2.7-4.4,4.2-6.5c0.7-1,1.8-2.1,2.9-2.3c6.8-1.6,11.5-6.2,15.7-11.2c4-4.6,7.6-9.6,11.3-14.4c3.7-4.9,7.2-9.9,10.8-14.8
		c8.2-11.1,19.3-15.7,33-15.2c7.1,0.3,13.8,2,20.4,4.3c11.3,4,21.3,10,29.9,18.2c1.7,1.6,3.6,2.4,5.8,0.8c2.6-1.9,5.6-2.2,8.7-2.5
		c3.5-0.3,6.9-0.7,10.3-1.5c5.4-1.2,9.5-4.3,11.8-9.4c0.7-1.6,1.4-3.2,2-4.8c0.6-1.9,2.2-2.6,3.9-3c1.7-0.4,3.4-0.5,5.2-0.7
		c5.6-0.5,7.4,1.5,6.7,6.6c-0.2,1.3-0.4,2.6-0.3,3.9c0.1,0.8,0.5,2.1,1,2.2c1.1,0.2,2.4,0.1,3.6-0.2c0.8-0.2,1.7-0.7,2.2-1.4
		c3.4-4.2,7.3-5.9,12.6-3.5c1.3,0.6,3.4-0.1,5-0.6c3.5-1,6,0.5,8.1,2.8c1.7,1.9,3.2,4.2,4.3,6.5c1.3,2.7,2.1,5.7,3,8.6
		c0.6,1.9,1.7,2.8,3.6,3.2c1.7,0.3,4,0.3,4.9,1.4c4,4.9,9,3.5,14.2,3.7c11.1,0.3,21.4,3.9,30.3,10.8c4.7,3.7,7.6,8.4,6.8,14.7
		c-0.3,2.3,0.7,4.2,2.4,5.8c4.9,4.6,7.8,10.5,10.4,16.5c7.5,17.3,12.5,35.3,15.7,53.9C978.8,1276.1,979.4,1283.1,978.3,1290.3z
		 M632.3,1415c-0.5,8.8,5.5,19.9,16.4,22.5c1.7,0.4,3.4,0.8,5.1,1.1c2.3,0.4,4,1.3,4.8,3.7c0.9,2.5,1.8,4.9,3,7.3
		c4.2,8.3,9.8,15.4,17.5,20.8c1.4,1,3.1,1.6,4.6,2.4c1,0.5,2.7-0.3,2.9-1.6c0.5-2.9,1.7-4.7,4.7-5.4c10.7-2.4,20.9-6.1,31-10.3
		c9.3-3.9,18.3-8.1,25.9-14.9c0.3-0.3,0.8-0.6,1.1-0.6c0.8,0.1,1.8,0.1,2.4,0.6c2.2,1.8,3,4.3,2.6,7c-0.9,5.2-3,10.1-6,14.4
		c-5.2,7.5-10.3,15.1-15.9,22.3c-7.5,9.6-15.3,19-23.2,28.4c-6.5,7.7-11.8,16.2-15.9,25.4c-2.9,6.4-4.9,13.1-5.6,20
		c-1,9.5-1.8,19.1-2.6,28.7c-0.2,1.8,0.3,3.4,1.5,4.8c4.2,4.5,8.7,8.6,14.2,11.3c2.2,1.1,4.8,0.8,5.7-1.2c2.2-5.6,6.6-9.1,11.5-12
		c4.9-2.9,9.8-5.6,14.9-8.1c6.4-3,11.9-7.2,17.1-11.9c18.1-16.6,28.5-37.1,31.9-61.3c1.6-10.9,2.2-21.7,0.2-32.6
		c-1.5-8.1,0-15.6,3.5-22.8c2.8-5.9,5.8-11.7,8.5-17.7c3.1-6.7,6.1-13.5,8.7-20.4c1.4-3.6,2-7.6,2.6-11.4c0.9-5.3-0.9-10.3-2.4-15.3
		c2-4.8,7-7.7,8.1-13.1c0.7-3.4,1.7-6.8,2.1-10.2c1.3-13.1,0.3-26.1-1.6-39.1c-1.3-8.6-2.8-17.2-4.4-25.8c-0.6-3.2,0-5.9,2.3-8.4
		c1.6-1.7,1.4-4.1,0.7-6.2c-0.7-2-1.6-4.1-2.8-5.8c-2.2-3.2-4.8-6-6.3-9.8c-1.2-3.2-4.4-4-7.6-3.9c-4,0.1-7.7,1.2-11.4,2.8
		c-6,2.6-11.9,5.5-18,7.8c-3.5,1.3-6.1,2.9-7.7,6.4c-2.5,5.3-6.6,9.2-11,12.8c-5.1,4.1-10.3,8.1-15.7,11.7c-8,5.2-16.3,10.1-24.6,15
		c-12.1,7.1-23.3,15.4-33.3,25.2c-6.2,6.1-12,12.7-16.8,20c-5.3,8.1-9.5,16.7-10.3,26.5c-0.3,3.3-1.5,5.6-4.7,7.2
		C634.4,1403.8,632.3,1408.9,632.3,1415z M643.3,1488.7c0.1-6-0.9-12-3.3-17.6c-2.3-5.5-6.3-9.5-12.2-10.9
		c-5.6-1.3-9.8,0.1-11.9,5.2c-1.4,3.3-2.8,6.2-5.8,8.3c-1.2,0.8-1.9,3-2,4.5c-0.1,2.6,0.2,5.3,1,7.7c3.3,10,8.1,19.2,14.1,27.7
		c0.7,1,2.6,1.5,3.5,1C637.1,1509.3,643.5,1501.2,643.3,1488.7z"/>
	<path class="st1" d="M540.4,831c0.5-3.4,0.8-7.8,1.9-11.9c2.7-9.6,5.8-19.2,8.7-28.8c1.3-4.2,2-8.7,4.2-12.3
		c2.3-3.8,7.3-4.4,10.9-6.9c5-3.4,10.2-6.8,15-10.4c4-3,6.3-7.2,6.8-12.2c0.3-2.6,0.4-5.2,0.7-7.8c0.7-5.7,2.1-11.1,6.5-15.3
		c1.2-1.1,2.2-2.7,2.8-4.3c1.9-4.8,5.7-7.6,10.1-9.7c3.5-1.7,7.1-3.4,10.8-4.6c13.3-4.2,24.2-11.8,33.3-22.3c2-2.3,4.3-4.4,6.4-6.6
		c4-4.2,8.8-7.1,14.5-8.5c6.8-1.7,13.5-3.4,20.3-5c7.2-1.8,14.5-3.3,21.6-5.4c4.6-1.4,9-3.4,13.3-5.4c2.8-1.3,5-3.4,6.6-6.2
		c1.1-1.9,2-4,3.5-5.5c7.8-7.8,13.7-17,20.3-25.6c3.2-4.1,6.7-8,10.4-11.7c4.2-4.1,9.3-6.5,15.4-5.8c2.8,0.3,5-0.5,7.1-2.5
		c10.1-9.9,22-17.2,34.6-23.3c5.6-2.7,10.7-5.7,14.9-10.2c1.8-1.9,3.7-3.6,5.6-5.3c1-5.7,4.9-6.5,9.7-6c5.8,0.5,11.1-2.1,16.6-3.4
		c1.9-0.5,3.8-2.2,5-3.9c1.7-2.5,2.7-5.4,4.2-8.1c0.4-0.7,1.3-1.3,2.1-1.4c1.2-0.2,2.6-0.1,3.9,0c4.1,0.1,7.7-1.2,10.8-3.9
		c2-1.7,4-3.4,6.1-5c3.2-2.4,6.7-4.5,10.6-4.7c2.9-0.1,4.8-1.4,6.6-3.3c1.9-1.9,4.4-2.8,7.1-3c5.7-0.4,11.4-0.2,16.8,1.5
		c7.9,2.5,15.7,5.1,23.6,7.8c4.5,1.6,8.9,3.6,13.4,5.2c2.4,0.8,5.1,1.2,7.6,1.7c2.2,0.4,4.5-1.5,4.6-3.6c0.1-2.2-0.1-4.4,0.1-6.5
		c0.1-1.7,0.4-3.5,0.7-5.2c0.4-2.4,3.3-4.8,5.6-4.5c3.4,0.5,6.9,1.2,10.2,2.1c2.9,0.9,5.7,2.3,8.5,3.4c4.5,1.8,9,3,13.9,3.6
		c8.2,0.9,16.4,2.3,24.3,4.9c4.5,1.5,9.1,3.1,13.3,5.4c10.4,5.6,16.3,14.2,16.2,26.4c0,1.7-0.2,3.5,0.1,5.2c0.3,1.7,1,3.3,1.8,4.8
		c0.6,1.1,1.7,2,2.4,3.1c2.2,3.4,3.5,7.1,3.3,11.1c-0.3,4.3-0.7,8.7-1.3,13c-0.7,5.2-1.7,10.3-2.5,15.5c-0.7,4.4,0.1,8.8,2.1,12.7
		c0.9,1.9,2.5,3.5,4,5c1.5,1.5,4.4,1.8,6.1,0.7c1.8-1.2,3.7-2.4,5-4.1c2.8-3.8,5.5-7.9,7.9-12c3.5-6,6.6-12.3,10-18.4
		c2.5-4.6,5.1-9.3,9.3-12.5c3.1-2.3,4.2-5.1,4.5-8.9c0.5-8.9,4.3-16.8,9.1-24.2c5.2-8.1,11.6-15.3,18.2-22.2
		c6.7-6.9,13.5-13.6,20.2-20.5c4.2-4.4,8.4-8.9,12.3-13.5c4.3-5,8.2-10.2,10.8-16.3c1.7-3.9,4.2-6.2,8.3-7.5c2.2-0.7,4.3-3,5.7-5.1
		c2.6-4,4.9-8.2,6.8-12.6c3.5-8,6.6-16.1,9.9-24.2c2.7-6.4,5.3-12.9,8.2-19.2c1.8-3.9,3.9-7.8,6.3-11.5c4-6.4,8.7-12,16.2-14.6
		c1.7-0.6,2.9-2,3.2-3.8c1.7-11.2,7.3-20.4,14.1-29.1c4.6-5.8,9.5-11.4,14.4-17c5.5-6.2,11.2-12.2,16.7-18.4c3.5-3.9,6.8-8,10-12.1
		c7-9.2,12.3-19,12.4-31c0-2.3,2.2-3.5,4.7-2.9c1.3,0.3,2.6,0.5,3.8,1.1c3.6,1.6,7.1,3.3,10.6,5.1c2.7,1.4,5.3,3,7.9,4.6
		c3,1.8,6,3.5,9,5.3c11.4,6.6,23.1,12.2,36.6,13.2c1.6,0.1,3.3,2,3.3,3.5c0.1,2.2,0.3,4.4,0,6.5c-1,6.5-3.2,12.6-6,18.6
		c-1.5,3.1-2.6,6.4-3.6,9.7c-0.6,1.9,1.3,4.7,3.2,5c1.7,0.2,3.5,0.6,5.2,0.5c4.8-0.4,9.5-0.8,14.3-1.5c5.3-0.7,7.9,0.2,6.9,7.4
		c-0.5,3.4-1.2,6.9-2.5,10.1c-2.6,6.4-5.4,12.9-8.7,19c-8,14.6-17.5,28.1-28.5,40.6c-7,7.9-14.1,15.5-23.8,20.1
		c-2.4,1.1-4.3,3.1-5.5,5.4c-2.3,4.2-4.7,8.4-6.8,12.7c-3,6.3-5.6,12.8-8.8,19c-2.3,4.7-5,9.2-7.9,13.5c-2.2,3.3-5,6.2-8.8,7.5
		c-4.9,1.6-8,5.1-11,8.9c-7.3,9.3-13.3,19.4-18.9,29.8c-0.8,1.5-1.7,3.1-2.3,4.7c-1.5,4.3-4.4,7.5-7.6,10.5
		c-3.2,2.9-6.6,5.8-9.8,8.7c-4.9,4.5-9.3,9.2-10.7,16.1c-0.6,3.1-2.5,5.6-4.7,7.7c-3.2,3-6.4,5.9-9.6,8.8c-2.9,2.6-6,5.1-8.7,7.9
		c-2.4,2.5-4.5,5.3-6.4,8.2c-2.5,3.7-2.3,8.5-4.4,12.2c-2.1,3.6-6.3,5.9-8.9,9.3c-2.3,3.1-3.9,6.8-5.4,10.4c-2,4.8-3.6,9.8-5.5,14.7
		c-1.6,4.1-3.2,8.1-4.9,12.1c-2.5,5.7-5.8,10.8-11.6,13.6c-2.9,1.4-4.7,3.9-6.3,6.5c-2.9,4.9-5.7,9.8-8.3,14.8
		c-4.8,9.3-9.4,18.7-14,28.1c-3.1,6.4-6.9,12.1-12.8,16.3c-5.5,3.9-9.1,9.2-12.3,15c-3.7,6.9-7.7,13.7-11.8,20.3
		c-4.2,6.7-9.5,12.4-15.9,17.2c-5.2,3.9-10.4,7.9-15.4,12.2c-4.7,4-8.8,8.4-10,14.9c-0.3,1.8-1.8,3-3.6,3.4
		c-8.4,1.7-13.7,7.3-18,14.1c-2.6,4-4.7,8.4-6.8,12.7c-1.9,3.9-3.6,8-5.4,11.9c-1.7,3.6-3.4,7.1-6.4,9.8c-2,1.8-3.1,4.1-3.7,6.7
		c-1.9,8.6-5,16.7-9.6,24.2c-3.3,5.4-5,11.2-5.5,17.3c-0.7,7.4-1.1,14.8-1.1,22.2c0,4.3,0.8,8.7,1.8,12.9c2.2,9.3,4.7,18.6,7.1,27.9
		c1.3,5.1,2.4,10.2,3.5,15.3c1.1,5.2,1.4,10.4,0.7,15.6c-0.6,4.2-2.8,7.2-6.5,9.3c-4.4,2.5-9.1,3.2-13.9,1.8
		c-4.2-1.3-8.2-3-12.2-4.7c-14.5-6.1-16.6-6-31.1,0.4c-4.8,2.1-9.5,4.3-14.4,6.1c-7.3,2.7-14.3,2.2-21.5-1.1
		c-12.5-5.7-23.5-13.3-32.7-23.4c-3.5-3.9-6.7-8-9.1-12.7c-3.8-7.4-5-14.8-0.6-22.4c4.9-8.5,4.5-17.6,2.5-26.7
		c-1.8-8.5-4.5-16.9-5.5-25.6c-0.2-1.5-2.4-2.7-4-2.4c-4.8,0.9-9.1,3-13.3,5.2c-9.7,5-19.3,10.2-28.9,15.3
		c-12.7,6.7-25.3,13.7-38.2,20.1c-6.2,3.1-12.8,5.6-19.3,8c-3.2,1.2-6.7,1.8-10.1,2.3c-4.9,0.7-9.6-0.1-13.1-4.1
		c-0.7-0.8-1.4-1-2.3-0.5c-0.4,0.2-0.9,0.2-1.2,0.4c-7.7,4.7-16.3,5.9-25.1,6c-6.5,0.1-13.1-0.1-19.5,1.6c-0.4,0.1-0.9,0.3-1.3,0.2
		c-8-1.4-15.5,1.4-23.1,3.1c-3.8,0.9-7.8,1.1-11.7,1.2c-3.7,0.1-6.8-1.2-7.9-5.4c-0.2-0.8-0.5-1.6-1-2.4c-0.7-1.2-1.8-2.1-3.2-1.7
		c-3.2,0.9-5.7,0.5-8.2-2.1c-1.4-1.4-3.7-2.2-5.7-2.8c-5.4-1.7-11.2-1.7-16.1-5.1c-0.8-0.5-2.6-0.2-3.6,0.4c-8.3,4.9-15.2,2-21.2-4
		c-4-4-7.5-8.5-11-12.9c-3.8-4.8-7.2-9.8-11-14.6c-2.7-3.4-5.7-6.7-10.1-7.9c-2.2-0.6-3.7-2.2-5-4c-2.9-4-7-4.9-11.5-4.8
		c-3,0.1-6.1,0.4-9.1,0.1c-3.7-0.3-6.9-2.2-7.6-6.1c-0.8-4.5-2.4-8.2-6-11.2c-0.9-0.7-1.3-2.2-1.6-3.5c-1.1-5.5-2.3-11.1-3.1-16.7
		c-0.6-3.9-1.3-7.9-0.8-11.7c0.6-5.6-0.9-8.9-6.5-10.8c-3.4-1.2-5.1-4.6-5.8-8.2C540.7,836.3,540.7,834.1,540.4,831z M956.1,667.8
		c-0.7-6.3-1.1-11.1-1.7-15.9c-0.8-6.1-2.5-12-5.5-17.3c-4.6-8.2-11.5-12.9-21.2-12.9c-5.7,0-11.3,0.8-16.7,2.5
		c-22.9,7-43.3,18.4-60.7,34.9c-7.3,6.9-14.2,14.2-21.3,21.2c-4.4,4.2-9,8.3-13.6,12.3c-2.7,2.3-5.6,4-9.4,4.1c-3,0.1-6.1,0.6-9,1.5
		c-11.3,3.5-20.7,9.4-25.3,20.9c-2.8,7-6.9,13.1-11.3,19.1c-4.4,6-8.8,11.9-11.7,18.8c-0.9,2.1-2.3,3.6-4.3,4.7
		c-5.2,2.8-8.6,7.3-11.6,12.1c-2.8,4.4-5.3,9-8.1,13.5c-2.5,4.1-5.2,8-9.4,10.7c-1.1,0.7-2,1.6-3,2.5c-3,2.9-4.4,6.4-4.4,10.5
		c0,1.7,0,3.5,0.3,5.2c0.8,4.3,0.9,8.7,0.7,13c-0.1,1.7,0.1,3.5,0.4,5.2c0.6,3.7,2.7,6.5,6.5,7.4c4.6,1.2,9.4,1.8,14,3.3
		c4.9,1.5,9.5,1.1,14.1-0.6c3.3-1.2,6.4-2.8,9.5-4.3c4.7-2.3,9.4-4.6,14.1-6.9c5.1-2.5,10.5-4.4,16-5.7c5.7-1.4,11.6-1.5,16.5,1.7
		c5,3.3,9.7,2.8,14.9,1.7c4.3-0.8,8.6-1.3,12.9-2c6-0.9,12.1-1.6,18.1-2.9c3.8-0.8,7.5-2.3,11.1-3.8c4.1-1.8,7.3-4.7,9.2-8.9
		c0.5-1.2,1.1-2.4,1.6-3.6c0.9-2.3,2.8-3.3,5.1-3.5c8.7-0.8,17.2-2.8,25.3-6.2c6.1-2.5,11.7-5.7,16.5-10.4c3.8-3.8,6.4-8.2,7.5-13.5
		c0.2-1-1.2-2.7-2.3-2.6c-3.9,0.6-7.7,1.3-11.6,1.9c-5.2,0.8-10.4,1.1-15.6-0.1c-1.4-0.3-3-2.3-3.1-3.8c-0.3-3.6,0.5-6.9,1.9-10.2
		c1.1-2.5,3-4.3,5.5-5.3c2-0.8,4.2-1.1,6.2-1.8c1.3-0.4,2.2-3,1.6-4.5c-0.5-1.2-1.1-2.4-1.9-3.4c-2.1-2.4-4.9-3.5-8.1-3.7
		c-5.7-0.4-11.3,0.2-16.9,1c-4.7,0.7-9.5,0.9-14.3,1.2c-3.1,0.2-6.3-0.4-8.6-2.5c-3.5-3.1-7.4-4.2-11.9-4.4c-1.7-0.1-3.4-0.7-5-1.2
		c-1.4-0.4-2.2-3.3-1.1-4.4c1.6-1.4,3.2-3.1,5-4c11.8-6,24.1-10.2,37.5-10.5c3.6-0.1,6.9-0.6,10.1-2.3c15.4-8.2,30.8-16.3,46.1-24.6
		c4.6-2.5,8.8-5.7,13.1-8.6C954.5,678.9,957.8,673.8,956.1,667.8z"/>
	<path class="st1" d="M873.2,1755.1c0.2-15.3,3.4-26,9.8-35.7c1.7-2.5,3.6-4.9,5.4-7.4c11.4-16,23.2-31.7,31.9-49.4
		c0.8-1.6,2.2-2.7,4.1-2.9c6.8-0.8,12.2-4.5,17.2-8.8c1.3-1.1,2.7-2.3,3.9-3.5c5.4-5.1,11.1-9.7,17.8-13.2
		c6.5-3.4,10.7-8.9,12.7-15.9c1.2-4.2,2.3-8.4,3.4-12.6c0.5-1.8,0.3-3.4-1-4.8c-0.9-1-1.8-1.9-2.7-2.8c-2.1-2.4-3.1-5.2-3.3-8.3
		c-0.6-6.6-0.1-13.1,1.9-19.4c2.5-7.9,4.9-15.9,8.2-23.4c5.5-12.8,11.3-25.6,17.7-37.9c11.8-22.4,24.2-44.4,36.3-66.6
		c7.9-14.5,16-29,23.7-43.7c4.9-9.2,9.5-18.6,11.2-29.2c0.3-2.1,1.4-4.1,2.6-5.9c8.8-14.1,17.4-28.2,27.3-41.6
		c5.2-7,10.7-13.7,16.9-19.9c8.4-8.4,18.5-14.6,28.7-20.3c8.1-4.6,16.7-4.4,24.9,0.6c1.9,1.2,3.2,3.4,2.7,5.5
		c-3.1,12-2.7,24.2-2.6,36.4c0,1.7,0.3,3.5,0.6,5.2c0.4,2.7,3.5,4.5,5.8,3.4c6-2.6,11.5-6.2,17.8-8.1c1.8-0.6,3.1-2.9,4.7-4.3
		c1.4-1.2,3.1-1.6,4.8-1c5,1.9,9.3,4.8,13.3,8.2c4.5,3.9,6.9,9,7.5,14.8c1.2,11.7-1,22.9-7.7,32.4c-8,11.5-15.1,23.5-22.7,35.2
		c-1.9,2.9-3.8,5.9-5.8,8.7c-4.3,6-8.7,12-15.3,15.9c-1.3,0.8-2.4,2.6-2.8,4.2c-5.1,20.8-13.1,40.6-20,60.9
		c-6.4,19-13.3,37.8-18.3,57.3c-1.7,6.7-4,13.4-3.2,20.5c0,0.3,0.4,0.7,0.6,0.9c0.4,0.2,1.1,0.3,1.3,0.1
		c10.1-10,23.3-13.6,36.5-16.2c14.5-2.9,27.3-8.6,39.3-16.9c5.4-3.7,11.2-6.6,16.9-9.9c2.3-1.3,4-0.3,5.8,1.3
		c1.6,1.5,3.7,1.2,4.3-0.3c4.1-10,11.8-17.2,19.7-24c7.9-6.9,16.2-13.3,25.1-18.8c11.7-7.3,21.3-16.6,28.9-28
		c1.5-2.3,3.2-4.1,5.8-4.8c7.9-2.1,14-7.1,19.1-13.1c3.1-3.6,6-7.5,8.2-11.7c2.3-4.3,5-7.8,9-10.8c5.2-3.9,9.7-8.8,14.1-13.6
		c7.7-8.3,15-17,22.6-25.4c5.3-5.8,10.8-11.4,16.3-16.9c1.6-1.6,2.9-3.2,3.9-5.1c1.9-4,4.5-7.5,7.7-10.5
		c12.2-11.5,25.8-20.8,42.3-24.9c2.9-0.7,4.5-2.1,5.2-5c3.9-16.4,15.7-25.7,29.9-32.5c8-3.8,16.6-5.1,25.5-4.4
		c2.6,0.2,5.2,0.4,7.8,0.8c6,1,12,2.1,17.9,3.2c4,4.9,4.2,11.3,6.1,17c2.6,7.8,4.6,15.9,8.4,23.3c0.6,1.1,2.2,1.5,3.3,0.7
		c1.4-1.1,2.6-2.3,4.1-3.2c2.2-1.4,4.4-2.9,6.8-3.7c6.4-2.3,12.7,1.3,12.7,8.6c0,3-0.2,6.3-1.4,9c-4,8.6-5.5,17.4-4.5,26.7
		c0.3,2.7-0.5,5.2-2.2,7.3c-2.1,2.8-4.3,5.5-6.4,8.3c-3,3.9-5.3,8.1-5.1,13.1c0.3,9.4-3.9,16.8-9.9,23.5c-3.8,4.2-7.7,8.3-11.8,12.3
		c-7.8,7.7-15.3,15.5-19.3,26.1c-1.6,4.1-4.7,7.4-7.7,10.5c-3.1,3.1-6.3,6-9.4,9.1c-2.8,2.8-5.5,5.6-8,8.6
		c-3.7,4.5-6.2,9.5-6.4,15.4c-0.1,3.1-0.8,5.9-2.4,8.7c-3.7,6-6,12.6-8.3,19.1c-3.4,9.4-6.7,18.9-10.2,28.3
		c-2.9,7.8-6.1,15.4-10.5,22.5c-3.3,5.2-7,10-13.1,12.3c-2.7,1-3.9,3.3-4.8,5.9c-4.4,12.5-11.7,23.4-19.8,33.6
		c-3.8,4.8-7.8,9.4-13.5,12.2c-2.8,1.4-5,3.5-6.8,6c-3.4,5-7.1,10-10,15.3c-3.5,6.5-6.5,13.3-9.4,20.1c-2.6,6-4.9,12.1-6.9,18.4
		c-5.7,17.5-13.4,34-24.5,48.9c-3.4,4.5-6,9.6-8.5,14.7c-3.7,7.3-9.7,9.7-17.3,8.9c-5.2-0.6-10.3-1.9-15.5-2.7
		c-4.3-0.7-8.6-1.3-12.9-1.6c-4.4-0.3-8.7,0.3-12.7,2.5c-5.5,3-11.5,3.9-17.7,3.4c-1.7-0.1-3.5-0.2-5.2-0.2
		c-2.7-0.1-5.1,0.8-7.3,2.4c-1.1,0.8-2,1.6-3,2.5c-8.7,7.8-18.8,8.3-29.4,5.8c-6.3-1.5-9-6.9-6.8-13.2c1-2.9,2.3-5.6,3.7-8.4
		c1.4-2.7,3-5.3,4.4-8c0.8-1.5,1.2-3.3,1.6-4.9c0.4-1.8-0.1-3.6-1.4-4.8c-2-1.7-4.3-3-6.3-4.6c-2.4-1.9-4.4-4.3-5.1-7.4
		c-0.3-1.1,0.2-2.5,0.5-3.7c0.1-0.3,0.6-0.6,0.9-0.8c8.3-4.4,14.2-11.4,19.6-18.8c10-13.8,18.1-28.8,24.9-44.4
		c2.3-5.2,3.9-10.6,3.5-16.5c-0.1-2.2,0.1-4.4,0.1-6.5c0.1-4,0.8-7.8,2.6-11.4c1.3-2.7,2.4-5.6,3.4-8.5c1-2.8,0.6-5.2-0.9-5.9
		c-1.6-0.8-3.3-1-5-0.3c-7.8,3-14.6,7.8-21.2,12.7c-1,0.7-1.7,2.1-2,3.3c-4.3,17.4-15.5,30-29.1,40.8c-7.5,5.9-15.5,11.3-23.5,16.5
		c-8.8,5.7-17.9,10.8-26.9,16.2c-8.6,5.2-16.9,10.8-24.8,16.9c-6.5,5.1-13.4,9.7-20.2,14.5c-9.3,6.5-18,13.7-25.4,22.4
		c-6.2,7.3-13.4,13.7-21.1,19.5c-7,5.2-14.1,10.2-21.2,15.3c-3.2,2.3-6.6,4.3-9.1,7.4c-4.2,5.2-9.6,8.8-15.4,11.9
		c-5,2.7-10.2,5-15.3,7.4c-6.7,3.1-13.5,3.2-20.4,0.7c-4.1-1.5-8-3.4-11.9-5.4c-3.9-2-7.6-4.2-11.4-6.4c-7.6-4.4-15.5-7.9-24.5-8.4
		c-1.7-0.1-3.4-0.8-5.1-0.9c-5.5-0.6-8.5-3.3-9.6-8.9c-0.6-3.3-2.7-6.4-4.5-9.3c-3.2-5-7.9-7.9-13.8-9.1c-7.3-1.4-14.7-1.7-22.1-1.3
		c-2.8,0.2-4.9-1.3-6.3-3.9C874.9,1767,873,1759.5,873.2,1755.1z"/>
	<path class="st1" d="M3182.4,579c-15.4-1.7-30.1-3.1-44.8-4.9c-10.4-1.3-20.9-1.4-31.3-1.3c-6.2,0-12.5,0.5-17.9,3.1
		c-5.2,2.4-9,2-12.8-1.9c-0.3-0.3-0.8-0.4-1.2-0.3c-0.8,0.2-1.7,0.3-2.3,0.8c-0.9,0.8-1.8,1.9-0.9,3.3c2.5,3.6,5.1,7.1,7.3,10.8
		c2.6,4.3,0.2,8.9-5,9.4c-3.4,0.3-7,0.4-10.4,0c-5.6-0.8-11.2-1.9-16.7-3.2c-13.6-3-26.9-7.2-40.1-11.7c-8.8-3-17.7-4.6-26.9-5.1
		c-12.2-0.7-24.4-1.7-36.5-2.9c-4.7-0.5-9.5-1.4-14-3c-3.9-1.4-7.6-1.6-11.5-1.3c-7,0.5-13.9,1-20.9,1.3c-5.2,0.2-10.4-0.2-15.4-2.1
		c-3.2-1.2-6.8-1.4-10.3-1.6c-7.8-0.5-15.7-1-23.5-1.2c-19.5-0.4-35-9.6-48.9-22.1c-2.5-2.3-4.5-5.4-6.1-8.4c-1.6-3-4.1-4.5-7.1-5.2
		c-6.5-1.6-12.9-1.1-19.2,1.6c-6.5,2.8-12.2,6.8-17.3,11.6c-5.7,5.4-11.2,11-16.6,16.7c-5.2,5.3-10,10.9-15.3,16.1
		c-4,4-8.3,7.7-12.8,11.2c-7.4,5.8-15.6,9.5-25.2,9.5c-2.8,0-5,0.9-6.7,3.2c-3,4.1-7.4,6.1-11.9,7.8c-5.3,2-10.7,3.7-16.1,5.5
		c-5.9,2-11.4,4.4-14.6,10.3c-0.6,1.1-1.7,2-2.7,2.8c-9.8,8-18.4,17.3-27.5,26.2c-8.1,7.9-15.8,16.3-25.3,22.7
		c-1.3,0.9-2.3,2.6-3.2,4c-0.7,1.1-1,2.4-1.4,3.6c-3.1,8.3-7.9,15.6-13.8,22.1c-3.5,3.9-7.3,7.5-10.9,11.3
		c-5.4,5.7-10.7,11.5-16.2,17.1c-4.6,4.7-9.3,9.2-14,13.7c-4.1,3.9-8.5,7.5-12.6,11.4c-4.8,4.5-8.9,9.7-11.3,15.9
		c-1.5,4-3.7,6.9-8.3,7.1c-2.4,1.8-5.1,3.4-7.2,5.5c-3,3.1-5.6,6.7-8.4,10c-3.1,3.7-6.5,6.9-11.3,8.6c-2.4,0.9-4.8,2.2-6.9,3.7
		c-11.8,8.2-23.4,16.8-34.2,26.3c-5.6,4.9-10.9,10-14.2,16.9c-0.9,1.9-2.3,3.7-3.7,5.4c-9.9,11.6-20.2,22.9-33.1,31.4
		c-12.1,8-22.5,17.9-31,29.7c-8.4,11.7-18.1,22.4-27.9,32.9c-8,8.6-16,17.3-23.7,26.2c-11,12.5-22.3,24.5-35.8,34.4
		c-4.6,3.3-8.5,7.6-13.1,10.8c-3.9,2.8-6.3,5.8-5.2,10.8c0.2,0.8-0.1,1.7-0.2,2.6c-0.3,2.4-2.6,5.1-4.9,5.6
		c-2.1,0.4-4.3,0.7-6.5,0.9c-2.6,0.2-5.2,0.2-7.8,0.6c-2.6,0.3-5.4,0.9-7.1,2.9c-3.9,4.6-8.9,4.9-14.3,4.3
		c-4.8-0.5-9.6-0.6-14.3-0.9c-1.7-0.1-3.5-0.2-5.2-0.5c-4-0.6-7.2-3.9-7.5-7.9c-0.3-3.5-0.2-7-0.4-10.4c-0.1-2.2-0.5-4.3-0.8-6.5
		c-0.2-1.2-2.1-2.1-3.1-1.5c-1.8,1.2-3.7,2.2-5.4,3.6c-11.4,8.8-22.6,17.9-34,26.6c-5.2,3.9-10.8,7.3-16.3,10.9
		c-2.6,1.8-5.5,2.3-8.7,2c-6.1-0.6-12.2-0.7-18.2-1.3c-2.1-0.2-4.2-1.1-6.3-1.7c-0.9-0.3-1.7-2.5-1.1-3.3c0.8-1,1.5-2.2,2.5-2.9
		c3.2-2.3,6.6-4.3,9.8-6.5c3.2-2.2,6.5-4.5,9.4-7c3.7-3.1,6.7-6.8,7.7-11.8c1.5-7.6,5.9-13.6,11.5-18.6c5.2-4.7,10.6-9.1,16.1-13.4
		c6.5-5.1,13.3-9.9,19.9-15c5.2-4,10.1-8.3,14.3-13.4c3.7-4.5,6.4-9.4,5.8-15.5c-0.3-2.9,0.3-5.1,3-6.6c4.7-2.6,8.1-6.6,11.1-10.9
		c2.8-3.9,5.4-8,8.2-11.8c2.3-3.2,4.8-6.3,7.4-9.1c3.4-3.6,7.4-6.1,12.6-6c3.3,0.1,4.5-2,5.3-4.7c1.5-5,2.7-10.1,5.6-14.6
		c1.2-1.9,2.5-4.1,4.7-4.3c4.7-0.4,6.5-3.4,8.3-7.1c2.8-5.5,7-10,11.4-14.3c6.2-6.1,12.5-12.2,18.6-18.4c3.7-3.7,7.2-7.6,10.6-11.5
		c3.1-3.6,6-7.7,7.2-12.3c1-4,3.2-7,5.9-9.9c5.3-5.7,10.4-11.7,15.7-17.6c4.3-4.9,8.6-9.9,14-13.7c1.7-1.2,3.2-3,4.2-4.9
		c6.4-11.6,15-21.4,24-30.9c4.2-4.4,8.4-8.8,12.5-13.4c5-5.5,9.6-11.3,13-18c1.6-3.2,3.8-5.8,6.3-8.3c2.8-2.8,5.5-5.6,8.3-8.3
		c6.3-6.1,12.5-12.2,17.4-19.4c3.2-4.7,7.5-8.4,12.1-11.8c9.5-7,18.2-15,26.1-23.7c5-5.5,9.7-11.3,14-17.3
		c3.4-4.8,7.5-8.5,12.5-11.2c3.1-1.7,6.2-3.3,9.2-4.9c7.1-3.8,13.1-8.6,15.3-16.9c0.5-1.8,1.7-3.1,3.4-3.7c5.6-1.9,9.4-6.1,13-10.5
		c2.8-3.4,5.5-6.8,8.4-10c3.9-4.4,8.7-7.5,14.7-7.6c5.7-0.1,10-2.7,13.9-6.3c3.2-3,6.4-5.9,9.4-9.1c5.7-6.1,12.1-11.2,19.2-15.6
		c4.4-2.7,8.7-5.9,12.6-9.3c4.4-3.7,7.7-8.3,9.3-13.9c0.5-1.6-0.3-3.9-1.7-4.5c-7.6-3.3-15.3-6.4-23.9-5.3c-5.4,0.7-10.4-1.1-15-3.7
		c-3.4-1.9-6.7-4.1-10-6.2c-3.3-2.2-6.5-4.4-9.6-6.8c-6.9-5.1-14.6-7.6-23.2-7.3c-3.9,0.2-7.9,0.1-11.8-0.2
		c-3.5-0.3-6.9-0.8-10.3-1.6c-6-1.5-9.7-5.6-11.7-11.3c-0.9-2.6-1-5.2,0.8-7.5c4.4-5.9,8.8-11.9,13.4-17.8c1.9-2.4,4-4.6,6.2-6.7
		c4.6-4.3,10-6.9,16.5-6.9c6.2,0,12.2-0.8,18.1-2.5c4.6-1.3,6-4.7,3.2-9c-1.8-2.9-4-5.7-6.1-8.5c-2.4-3.1-4.9-6.1-7.2-9.3
		c-1-1.4-1.5-3.1-1.9-4.8c-0.2-0.7,0.2-1.7,0.6-2.3c0.8-1,1.8-1.9,2.8-2.7c8.7-6.5,17.5-13,26.3-19.5c5.6-4.1,11.3-8.2,17.1-12
		c5.9-3.8,12.2-6.6,19-8.6c9-2.5,18.1-3,27.1-0.5c21,5.9,41.7,12.8,61.5,22c6,2.8,11.6,6,15.7,11.4c1.9,2.5,4.7,3.8,7.5,5.1
		c6.8,3,13.9,5,21.1,6.9c4.3,1.1,8.7,1,12.9-0.6c5.7-2.2,11.6-3.7,17.8-4c4.5-0.3,8.3-2.9,11.3-6.1c2.6-2.9,5-6,7.2-9.3
		c3.2-4.7,6.5-9.2,10.9-12.9c2.3-1.9,4.2-4.4,5.9-6.9c3.4-4.9,8.1-7.9,13.7-9.4c5.5-1.5,11-2.6,16.5-3.9c7-1.7,13.9-0.5,20.7,1.3
		c4.7,1.3,8.9,3.6,12.5,6.9c5.4,4.9,8.5,11,8.7,18.4c0.2,5.3-0.6,10.4-2.5,15.4c-1.3,3.5,0.2,5.4,4,6.7c4.7,1.6,9.4,1.8,14.2,1
		c5.2-0.9,10.2-2.2,15.4-3.1c3.8-0.7,7.7-1.1,11.6-1.5c1.9-0.2,3.4,0.9,4.3,2.5c3.2,5.4,4.4,11.3,3.4,17.6c-1.1,7-3.6,13.5-7.1,19.6
		c-3.1,5.3-6.5,10.3-9.8,15.5c-1.2,1.8-2.3,3.7-3.4,5.6c-0.6,1,0.3,2.8,1.5,3c2.1,0.4,4.3,1,6.4,1.2c10.1,1.1,19.5,4.4,28.7,8.7
		c5.1,2.4,10.2,4.9,15.3,7.4c12.1,5.9,24.2,12,37.8,14.3c1.6,0.3,3.3,1.2,4.6,2.3c11.2,9.4,24.3,15.3,37.6,20.8c4,1.7,8,3.1,10.7,7
		c1.1,1.6,3.5,2.6,5.5,3.1c4.6,1.2,9.4,1.9,14.1,2.8c4.9,0.9,9.2,2.8,11.8,7.4c1.7,2.9,4.5,4.1,7.5,4.8c5.5,1.3,11.1,2.3,16.7,3.4
		c3.8,0.8,7.7,1.5,11.5,2.2c3.5,0.6,6.7,1.7,9.7,3.6c5.9,3.8,12.5,6,19.3,8c7.5,2.2,14.9,4.7,21.7,8.8c4.8,2.9,10.4,4.5,15.7,6.4
		c9.8,3.6,19.8,6.9,29.5,10.6c4.4,1.7,8.7,4,12.9,6.2c0.6,0.3,0.8,1.4,1.1,2.2c0.3,0.9-0.2,1.6-1.2,1.9c-1.7,0.4-3.4,1-5.1,1
		C3191.4,579.1,3186.6,579,3182.4,579z"/>
</g>
</svg>
